<mxfile host="app.diagrams.net" modified="2024-06-14T15:15:30.579Z" agent="Mozilla/5.0 (Windows NT 10.0; Win64; x64) AppleWebKit/537.36 (KHTML, like Gecko) Chrome/125.0.0.0 Safari/537.36" etag="x5G5mtEaCNi4EIHxGFOp" version="24.5.4" type="device">
  <diagram id="C5RBs43oDa-KdzZeNtuy" name="Page-1">
    <mxGraphModel dx="1371" dy="1743" grid="1" gridSize="10" guides="1" tooltips="1" connect="1" arrows="1" fold="1" page="1" pageScale="1" pageWidth="827" pageHeight="1169" math="0" shadow="0">
      <root>
        <mxCell id="WIyWlLk6GJQsqaUBKTNV-0" />
        <mxCell id="WIyWlLk6GJQsqaUBKTNV-1" parent="WIyWlLk6GJQsqaUBKTNV-0" />
        <mxCell id="zkfFHV4jXpPFQw0GAbJ--0" value="Registro Estado Batalla (32 bits)" style="swimlane;fontStyle=2;align=center;verticalAlign=top;childLayout=stackLayout;horizontal=1;startSize=30;horizontalStack=0;resizeParent=1;resizeLast=0;collapsible=1;marginBottom=0;rounded=0;shadow=0;strokeWidth=1;" parent="WIyWlLk6GJQsqaUBKTNV-1" vertex="1">
          <mxGeometry x="30" y="40" width="280" height="240" as="geometry">
            <mxRectangle x="230" y="140" width="160" height="26" as="alternateBounds" />
          </mxGeometry>
        </mxCell>
        <mxCell id="zkfFHV4jXpPFQw0GAbJ--1" value="Bit 0: Inicio de Batalla." style="text;align=left;verticalAlign=top;spacingLeft=4;spacingRight=4;overflow=hidden;rotatable=0;points=[[0,0.5],[1,0.5]];portConstraint=eastwest;labelBorderColor=none;labelBackgroundColor=#99ccff;" parent="zkfFHV4jXpPFQw0GAbJ--0" vertex="1">
          <mxGeometry y="30" width="280" height="20" as="geometry" />
        </mxCell>
        <mxCell id="zkfFHV4jXpPFQw0GAbJ--2" value="Bit 1: Termino de Batalla" style="text;align=left;verticalAlign=top;spacingLeft=4;spacingRight=4;overflow=hidden;rotatable=0;points=[[0,0.5],[1,0.5]];portConstraint=eastwest;rounded=0;shadow=0;html=0;labelBackgroundColor=#ffcccc;" parent="zkfFHV4jXpPFQw0GAbJ--0" vertex="1">
          <mxGeometry y="50" width="280" height="20" as="geometry" />
        </mxCell>
        <mxCell id="A0Vk1uOY33R5suH3qCWU-13" value="Bit 2: Ganador." style="text;align=left;verticalAlign=top;spacingLeft=4;spacingRight=4;overflow=hidden;rotatable=0;points=[[0,0.5],[1,0.5]];portConstraint=eastwest;rounded=0;shadow=0;html=0;labelBackgroundColor=#ffff99;" parent="zkfFHV4jXpPFQw0GAbJ--0" vertex="1">
          <mxGeometry y="70" width="280" height="20" as="geometry" />
        </mxCell>
        <mxCell id="zkfFHV4jXpPFQw0GAbJ--3" value="Bit 5-3: Tipo de campo de batalla." style="text;align=left;verticalAlign=top;spacingLeft=4;spacingRight=4;overflow=hidden;rotatable=0;points=[[0,0.5],[1,0.5]];portConstraint=eastwest;rounded=0;shadow=0;html=0;labelBackgroundColor=#00ff80;" parent="zkfFHV4jXpPFQw0GAbJ--0" vertex="1">
          <mxGeometry y="90" width="280" height="20" as="geometry" />
        </mxCell>
        <mxCell id="A0Vk1uOY33R5suH3qCWU-0" value="Bit 8-6: Tipo de clima activo." style="text;align=left;verticalAlign=top;spacingLeft=4;spacingRight=4;overflow=hidden;rotatable=0;points=[[0,0.5],[1,0.5]];portConstraint=eastwest;rounded=0;shadow=0;html=0;labelBackgroundColor=#ffce9f;" parent="zkfFHV4jXpPFQw0GAbJ--0" vertex="1">
          <mxGeometry y="110" width="280" height="20" as="geometry" />
        </mxCell>
        <mxCell id="A0Vk1uOY33R5suH3qCWU-2" value="Bit 11-9: Turnos restantes clima." style="text;align=left;verticalAlign=top;spacingLeft=4;spacingRight=4;overflow=hidden;rotatable=0;points=[[0,0.5],[1,0.5]];portConstraint=eastwest;rounded=0;shadow=0;html=0;labelBackgroundColor=#ff0080;" parent="zkfFHV4jXpPFQw0GAbJ--0" vertex="1">
          <mxGeometry y="130" width="280" height="20" as="geometry" />
        </mxCell>
        <mxCell id="A0Vk1uOY33R5suH3qCWU-9" value="Bit 17-12: Numero de turnos." style="text;align=left;verticalAlign=top;spacingLeft=4;spacingRight=4;overflow=hidden;rotatable=0;points=[[0,0.5],[1,0.5]];portConstraint=eastwest;rounded=0;shadow=0;html=0;labelBackgroundColor=#cda2be;" parent="zkfFHV4jXpPFQw0GAbJ--0" vertex="1">
          <mxGeometry y="150" width="280" height="20" as="geometry" />
        </mxCell>
        <mxCell id="A0Vk1uOY33R5suH3qCWU-10" value="Bit 24-18: Numero de Batalla." style="text;align=left;verticalAlign=top;spacingLeft=4;spacingRight=4;overflow=hidden;rotatable=0;points=[[0,0.5],[1,0.5]];portConstraint=eastwest;rounded=0;shadow=0;html=0;labelBackgroundColor=#00cccc;" parent="zkfFHV4jXpPFQw0GAbJ--0" vertex="1">
          <mxGeometry y="170" width="280" height="24" as="geometry" />
        </mxCell>
        <mxCell id="jOmrKNcZ774Khs-bOahz-1" style="edgeStyle=orthogonalEdgeStyle;rounded=0;orthogonalLoop=1;jettySize=auto;html=1;" parent="WIyWlLk6GJQsqaUBKTNV-1" source="A0Vk1uOY33R5suH3qCWU-14" edge="1">
          <mxGeometry relative="1" as="geometry">
            <mxPoint x="320" y="160" as="targetPoint" />
          </mxGeometry>
        </mxCell>
        <mxCell id="A0Vk1uOY33R5suH3qCWU-14" value="Registro Comando Batalla (32 bits)" style="swimlane;fontStyle=2;align=center;verticalAlign=top;childLayout=stackLayout;horizontal=1;startSize=26;horizontalStack=0;resizeParent=1;resizeLast=0;collapsible=1;marginBottom=0;rounded=0;shadow=0;strokeWidth=1;" parent="WIyWlLk6GJQsqaUBKTNV-1" vertex="1">
          <mxGeometry x="470" y="40" width="320" height="240" as="geometry">
            <mxRectangle x="230" y="140" width="160" height="26" as="alternateBounds" />
          </mxGeometry>
        </mxCell>
        <mxCell id="A0Vk1uOY33R5suH3qCWU-15" value="Bit 3-0: Comando." style="text;align=left;verticalAlign=top;spacingLeft=4;spacingRight=4;overflow=hidden;rotatable=0;points=[[0,0.5],[1,0.5]];portConstraint=eastwest;labelBackgroundColor=#ffce9f;" parent="A0Vk1uOY33R5suH3qCWU-14" vertex="1">
          <mxGeometry y="26" width="320" height="26" as="geometry" />
        </mxCell>
        <mxCell id="A0Vk1uOY33R5suH3qCWU-23" value="" style="line;html=1;strokeWidth=1;align=left;verticalAlign=middle;spacingTop=-1;spacingLeft=3;spacingRight=3;rotatable=0;labelPosition=right;points=[];portConstraint=eastwest;" parent="A0Vk1uOY33R5suH3qCWU-14" vertex="1">
          <mxGeometry y="52" width="320" height="8" as="geometry" />
        </mxCell>
        <mxCell id="A0Vk1uOY33R5suH3qCWU-26" value="CMD 1: Se inicia la batalla. Aumenta el ID de batalla." style="text;align=left;verticalAlign=top;spacingLeft=4;spacingRight=4;overflow=hidden;rotatable=0;points=[[0,0.5],[1,0.5]];portConstraint=eastwest;" parent="A0Vk1uOY33R5suH3qCWU-14" vertex="1">
          <mxGeometry y="60" width="320" height="26" as="geometry" />
        </mxCell>
        <mxCell id="A0Vk1uOY33R5suH3qCWU-25" value="CMD 2: Setear campo. Usar los siguientes 3 bits." style="text;align=left;verticalAlign=top;spacingLeft=4;spacingRight=4;overflow=hidden;rotatable=0;points=[[0,0.5],[1,0.5]];portConstraint=eastwest;" parent="A0Vk1uOY33R5suH3qCWU-14" vertex="1">
          <mxGeometry y="86" width="320" height="26" as="geometry" />
        </mxCell>
        <mxCell id="A0Vk1uOY33R5suH3qCWU-27" value="CMD 3: Setear clima. Usar los siguientes 3 bits para &#xa;indicar el clima, y los 3 siguientes a ese la duracion." style="text;align=left;verticalAlign=top;spacingLeft=4;spacingRight=4;overflow=hidden;rotatable=0;points=[[0,0.5],[1,0.5]];portConstraint=eastwest;" parent="A0Vk1uOY33R5suH3qCWU-14" vertex="1">
          <mxGeometry y="112" width="320" height="38" as="geometry" />
        </mxCell>
        <mxCell id="A0Vk1uOY33R5suH3qCWU-28" value="CMD 4: Incrementar turno. Decrementa turno de clima." style="text;align=left;verticalAlign=top;spacingLeft=4;spacingRight=4;overflow=hidden;rotatable=0;points=[[0,0.5],[1,0.5]];portConstraint=eastwest;" parent="A0Vk1uOY33R5suH3qCWU-14" vertex="1">
          <mxGeometry y="150" width="320" height="26" as="geometry" />
        </mxCell>
        <mxCell id="A0Vk1uOY33R5suH3qCWU-29" value="CMD 5: Termino de batalla. Indicar en el siguiente bit &#xa;si se gano o no." style="text;align=left;verticalAlign=top;spacingLeft=4;spacingRight=4;overflow=hidden;rotatable=0;points=[[0,0.5],[1,0.5]];portConstraint=eastwest;" parent="A0Vk1uOY33R5suH3qCWU-14" vertex="1">
          <mxGeometry y="176" width="320" height="34" as="geometry" />
        </mxCell>
        <mxCell id="jOmrKNcZ774Khs-bOahz-117" value="" style="group" parent="WIyWlLk6GJQsqaUBKTNV-1" vertex="1" connectable="0">
          <mxGeometry x="550" y="-70" width="320" height="10" as="geometry" />
        </mxCell>
        <mxCell id="jOmrKNcZ774Khs-bOahz-85" value="" style="whiteSpace=wrap;html=1;aspect=fixed;" parent="jOmrKNcZ774Khs-bOahz-117" vertex="1">
          <mxGeometry width="10" height="10" as="geometry" />
        </mxCell>
        <mxCell id="jOmrKNcZ774Khs-bOahz-86" value="" style="whiteSpace=wrap;html=1;aspect=fixed;" parent="jOmrKNcZ774Khs-bOahz-117" vertex="1">
          <mxGeometry x="10" width="10" height="10" as="geometry" />
        </mxCell>
        <mxCell id="jOmrKNcZ774Khs-bOahz-87" value="" style="whiteSpace=wrap;html=1;aspect=fixed;" parent="jOmrKNcZ774Khs-bOahz-117" vertex="1">
          <mxGeometry x="20" width="10" height="10" as="geometry" />
        </mxCell>
        <mxCell id="jOmrKNcZ774Khs-bOahz-88" value="" style="whiteSpace=wrap;html=1;aspect=fixed;" parent="jOmrKNcZ774Khs-bOahz-117" vertex="1">
          <mxGeometry x="30" width="10" height="10" as="geometry" />
        </mxCell>
        <mxCell id="jOmrKNcZ774Khs-bOahz-89" value="" style="whiteSpace=wrap;html=1;aspect=fixed;" parent="jOmrKNcZ774Khs-bOahz-117" vertex="1">
          <mxGeometry x="40" width="10" height="10" as="geometry" />
        </mxCell>
        <mxCell id="jOmrKNcZ774Khs-bOahz-90" value="" style="whiteSpace=wrap;html=1;aspect=fixed;" parent="jOmrKNcZ774Khs-bOahz-117" vertex="1">
          <mxGeometry x="50" width="10" height="10" as="geometry" />
        </mxCell>
        <mxCell id="jOmrKNcZ774Khs-bOahz-91" value="" style="whiteSpace=wrap;html=1;aspect=fixed;" parent="jOmrKNcZ774Khs-bOahz-117" vertex="1">
          <mxGeometry x="60" width="10" height="10" as="geometry" />
        </mxCell>
        <mxCell id="jOmrKNcZ774Khs-bOahz-92" value="" style="whiteSpace=wrap;html=1;aspect=fixed;" parent="jOmrKNcZ774Khs-bOahz-117" vertex="1">
          <mxGeometry x="70" width="10" height="10" as="geometry" />
        </mxCell>
        <mxCell id="jOmrKNcZ774Khs-bOahz-93" value="" style="whiteSpace=wrap;html=1;aspect=fixed;" parent="jOmrKNcZ774Khs-bOahz-117" vertex="1">
          <mxGeometry x="80" width="10" height="10" as="geometry" />
        </mxCell>
        <mxCell id="jOmrKNcZ774Khs-bOahz-94" value="" style="whiteSpace=wrap;html=1;aspect=fixed;" parent="jOmrKNcZ774Khs-bOahz-117" vertex="1">
          <mxGeometry x="90" width="10" height="10" as="geometry" />
        </mxCell>
        <mxCell id="jOmrKNcZ774Khs-bOahz-95" value="" style="whiteSpace=wrap;html=1;aspect=fixed;" parent="jOmrKNcZ774Khs-bOahz-117" vertex="1">
          <mxGeometry x="100" width="10" height="10" as="geometry" />
        </mxCell>
        <mxCell id="jOmrKNcZ774Khs-bOahz-96" value="" style="whiteSpace=wrap;html=1;aspect=fixed;" parent="jOmrKNcZ774Khs-bOahz-117" vertex="1">
          <mxGeometry x="110" width="10" height="10" as="geometry" />
        </mxCell>
        <mxCell id="jOmrKNcZ774Khs-bOahz-97" value="" style="whiteSpace=wrap;html=1;aspect=fixed;" parent="jOmrKNcZ774Khs-bOahz-117" vertex="1">
          <mxGeometry x="120" width="10" height="10" as="geometry" />
        </mxCell>
        <mxCell id="jOmrKNcZ774Khs-bOahz-98" value="" style="whiteSpace=wrap;html=1;aspect=fixed;" parent="jOmrKNcZ774Khs-bOahz-117" vertex="1">
          <mxGeometry x="130" width="10" height="10" as="geometry" />
        </mxCell>
        <mxCell id="jOmrKNcZ774Khs-bOahz-99" value="" style="whiteSpace=wrap;html=1;aspect=fixed;" parent="jOmrKNcZ774Khs-bOahz-117" vertex="1">
          <mxGeometry x="140" width="10" height="10" as="geometry" />
        </mxCell>
        <mxCell id="jOmrKNcZ774Khs-bOahz-100" value="" style="whiteSpace=wrap;html=1;aspect=fixed;" parent="jOmrKNcZ774Khs-bOahz-117" vertex="1">
          <mxGeometry x="150" width="10" height="10" as="geometry" />
        </mxCell>
        <mxCell id="jOmrKNcZ774Khs-bOahz-101" value="" style="whiteSpace=wrap;html=1;aspect=fixed;" parent="jOmrKNcZ774Khs-bOahz-117" vertex="1">
          <mxGeometry x="160" width="10" height="10" as="geometry" />
        </mxCell>
        <mxCell id="jOmrKNcZ774Khs-bOahz-102" value="" style="whiteSpace=wrap;html=1;aspect=fixed;" parent="jOmrKNcZ774Khs-bOahz-117" vertex="1">
          <mxGeometry x="170" width="10" height="10" as="geometry" />
        </mxCell>
        <mxCell id="jOmrKNcZ774Khs-bOahz-103" value="" style="whiteSpace=wrap;html=1;aspect=fixed;" parent="jOmrKNcZ774Khs-bOahz-117" vertex="1">
          <mxGeometry x="180" width="10" height="10" as="geometry" />
        </mxCell>
        <mxCell id="jOmrKNcZ774Khs-bOahz-104" value="" style="whiteSpace=wrap;html=1;aspect=fixed;" parent="jOmrKNcZ774Khs-bOahz-117" vertex="1">
          <mxGeometry x="190" width="10" height="10" as="geometry" />
        </mxCell>
        <mxCell id="jOmrKNcZ774Khs-bOahz-105" value="" style="whiteSpace=wrap;html=1;aspect=fixed;" parent="jOmrKNcZ774Khs-bOahz-117" vertex="1">
          <mxGeometry x="200" width="10" height="10" as="geometry" />
        </mxCell>
        <mxCell id="jOmrKNcZ774Khs-bOahz-106" value="" style="whiteSpace=wrap;html=1;aspect=fixed;" parent="jOmrKNcZ774Khs-bOahz-117" vertex="1">
          <mxGeometry x="210" width="10" height="10" as="geometry" />
        </mxCell>
        <mxCell id="jOmrKNcZ774Khs-bOahz-107" value="" style="whiteSpace=wrap;html=1;aspect=fixed;" parent="jOmrKNcZ774Khs-bOahz-117" vertex="1">
          <mxGeometry x="220" width="10" height="10" as="geometry" />
        </mxCell>
        <mxCell id="jOmrKNcZ774Khs-bOahz-108" value="" style="whiteSpace=wrap;html=1;aspect=fixed;" parent="jOmrKNcZ774Khs-bOahz-117" vertex="1">
          <mxGeometry x="230" width="10" height="10" as="geometry" />
        </mxCell>
        <mxCell id="jOmrKNcZ774Khs-bOahz-109" value="" style="whiteSpace=wrap;html=1;aspect=fixed;" parent="jOmrKNcZ774Khs-bOahz-117" vertex="1">
          <mxGeometry x="240" width="10" height="10" as="geometry" />
        </mxCell>
        <mxCell id="jOmrKNcZ774Khs-bOahz-110" value="" style="whiteSpace=wrap;html=1;aspect=fixed;" parent="jOmrKNcZ774Khs-bOahz-117" vertex="1">
          <mxGeometry x="250" width="10" height="10" as="geometry" />
        </mxCell>
        <mxCell id="jOmrKNcZ774Khs-bOahz-111" value="" style="whiteSpace=wrap;html=1;aspect=fixed;" parent="jOmrKNcZ774Khs-bOahz-117" vertex="1">
          <mxGeometry x="260" width="10" height="10" as="geometry" />
        </mxCell>
        <mxCell id="jOmrKNcZ774Khs-bOahz-112" value="" style="whiteSpace=wrap;html=1;aspect=fixed;" parent="jOmrKNcZ774Khs-bOahz-117" vertex="1">
          <mxGeometry x="270" width="10" height="10" as="geometry" />
        </mxCell>
        <mxCell id="jOmrKNcZ774Khs-bOahz-113" value="" style="whiteSpace=wrap;html=1;aspect=fixed;" parent="jOmrKNcZ774Khs-bOahz-117" vertex="1">
          <mxGeometry x="280" width="10" height="10" as="geometry" />
        </mxCell>
        <mxCell id="jOmrKNcZ774Khs-bOahz-114" value="" style="whiteSpace=wrap;html=1;aspect=fixed;" parent="jOmrKNcZ774Khs-bOahz-117" vertex="1">
          <mxGeometry x="290" width="10" height="10" as="geometry" />
        </mxCell>
        <mxCell id="jOmrKNcZ774Khs-bOahz-115" value="" style="whiteSpace=wrap;html=1;aspect=fixed;" parent="jOmrKNcZ774Khs-bOahz-117" vertex="1">
          <mxGeometry x="300" width="10" height="10" as="geometry" />
        </mxCell>
        <mxCell id="jOmrKNcZ774Khs-bOahz-116" value="" style="whiteSpace=wrap;html=1;aspect=fixed;" parent="jOmrKNcZ774Khs-bOahz-117" vertex="1">
          <mxGeometry x="310" width="10" height="10" as="geometry" />
        </mxCell>
        <mxCell id="jOmrKNcZ774Khs-bOahz-118" value="" style="group" parent="WIyWlLk6GJQsqaUBKTNV-1" vertex="1" connectable="0">
          <mxGeometry x="10" y="20" width="320" height="10" as="geometry" />
        </mxCell>
        <mxCell id="jOmrKNcZ774Khs-bOahz-10" value="" style="whiteSpace=wrap;html=1;aspect=fixed;" parent="jOmrKNcZ774Khs-bOahz-118" vertex="1">
          <mxGeometry width="10" height="10" as="geometry" />
        </mxCell>
        <mxCell id="jOmrKNcZ774Khs-bOahz-11" value="" style="whiteSpace=wrap;html=1;aspect=fixed;" parent="jOmrKNcZ774Khs-bOahz-118" vertex="1">
          <mxGeometry x="10" width="10" height="10" as="geometry" />
        </mxCell>
        <mxCell id="jOmrKNcZ774Khs-bOahz-14" value="" style="whiteSpace=wrap;html=1;aspect=fixed;" parent="jOmrKNcZ774Khs-bOahz-118" vertex="1">
          <mxGeometry x="20" width="10" height="10" as="geometry" />
        </mxCell>
        <mxCell id="jOmrKNcZ774Khs-bOahz-15" value="" style="whiteSpace=wrap;html=1;aspect=fixed;" parent="jOmrKNcZ774Khs-bOahz-118" vertex="1">
          <mxGeometry x="30" width="10" height="10" as="geometry" />
        </mxCell>
        <mxCell id="jOmrKNcZ774Khs-bOahz-16" value="" style="whiteSpace=wrap;html=1;aspect=fixed;" parent="jOmrKNcZ774Khs-bOahz-118" vertex="1">
          <mxGeometry x="40" width="10" height="10" as="geometry" />
        </mxCell>
        <mxCell id="jOmrKNcZ774Khs-bOahz-17" value="" style="whiteSpace=wrap;html=1;aspect=fixed;" parent="jOmrKNcZ774Khs-bOahz-118" vertex="1">
          <mxGeometry x="50" width="10" height="10" as="geometry" />
        </mxCell>
        <mxCell id="jOmrKNcZ774Khs-bOahz-18" value="" style="whiteSpace=wrap;html=1;aspect=fixed;" parent="jOmrKNcZ774Khs-bOahz-118" vertex="1">
          <mxGeometry x="60" width="10" height="10" as="geometry" />
        </mxCell>
        <mxCell id="jOmrKNcZ774Khs-bOahz-19" value="" style="whiteSpace=wrap;html=1;aspect=fixed;fillColor=#00CCCC;" parent="jOmrKNcZ774Khs-bOahz-118" vertex="1">
          <mxGeometry x="70" width="10" height="10" as="geometry" />
        </mxCell>
        <mxCell id="jOmrKNcZ774Khs-bOahz-20" value="" style="whiteSpace=wrap;html=1;aspect=fixed;fillColor=#00CCCC;" parent="jOmrKNcZ774Khs-bOahz-118" vertex="1">
          <mxGeometry x="80" width="10" height="10" as="geometry" />
        </mxCell>
        <mxCell id="jOmrKNcZ774Khs-bOahz-21" value="" style="whiteSpace=wrap;html=1;aspect=fixed;fillColor=#00CCCC;" parent="jOmrKNcZ774Khs-bOahz-118" vertex="1">
          <mxGeometry x="90" width="10" height="10" as="geometry" />
        </mxCell>
        <mxCell id="jOmrKNcZ774Khs-bOahz-22" value="" style="whiteSpace=wrap;html=1;aspect=fixed;fillColor=#00CCCC;" parent="jOmrKNcZ774Khs-bOahz-118" vertex="1">
          <mxGeometry x="100" width="10" height="10" as="geometry" />
        </mxCell>
        <mxCell id="jOmrKNcZ774Khs-bOahz-23" value="" style="whiteSpace=wrap;html=1;aspect=fixed;fillColor=#00CCCC;" parent="jOmrKNcZ774Khs-bOahz-118" vertex="1">
          <mxGeometry x="110" width="10" height="10" as="geometry" />
        </mxCell>
        <mxCell id="jOmrKNcZ774Khs-bOahz-24" value="" style="whiteSpace=wrap;html=1;aspect=fixed;fillColor=#00CCCC;" parent="jOmrKNcZ774Khs-bOahz-118" vertex="1">
          <mxGeometry x="120" width="10" height="10" as="geometry" />
        </mxCell>
        <mxCell id="jOmrKNcZ774Khs-bOahz-25" value="" style="whiteSpace=wrap;html=1;aspect=fixed;fillColor=#00CCCC;" parent="jOmrKNcZ774Khs-bOahz-118" vertex="1">
          <mxGeometry x="130" width="10" height="10" as="geometry" />
        </mxCell>
        <mxCell id="jOmrKNcZ774Khs-bOahz-26" value="" style="whiteSpace=wrap;html=1;aspect=fixed;fillColor=#CDA2BE;" parent="jOmrKNcZ774Khs-bOahz-118" vertex="1">
          <mxGeometry x="140" width="10" height="10" as="geometry" />
        </mxCell>
        <mxCell id="jOmrKNcZ774Khs-bOahz-27" value="" style="whiteSpace=wrap;html=1;aspect=fixed;fillColor=#CDA2BE;" parent="jOmrKNcZ774Khs-bOahz-118" vertex="1">
          <mxGeometry x="150" width="10" height="10" as="geometry" />
        </mxCell>
        <mxCell id="jOmrKNcZ774Khs-bOahz-28" value="" style="whiteSpace=wrap;html=1;aspect=fixed;fillColor=#CDA2BE;" parent="jOmrKNcZ774Khs-bOahz-118" vertex="1">
          <mxGeometry x="160" width="10" height="10" as="geometry" />
        </mxCell>
        <mxCell id="jOmrKNcZ774Khs-bOahz-29" value="" style="whiteSpace=wrap;html=1;aspect=fixed;fillColor=#CDA2BE;" parent="jOmrKNcZ774Khs-bOahz-118" vertex="1">
          <mxGeometry x="170" width="10" height="10" as="geometry" />
        </mxCell>
        <mxCell id="jOmrKNcZ774Khs-bOahz-30" value="" style="whiteSpace=wrap;html=1;aspect=fixed;fillColor=#CDA2BE;" parent="jOmrKNcZ774Khs-bOahz-118" vertex="1">
          <mxGeometry x="180" width="10" height="10" as="geometry" />
        </mxCell>
        <mxCell id="jOmrKNcZ774Khs-bOahz-31" value="" style="whiteSpace=wrap;html=1;aspect=fixed;fillColor=#CDA2BE;" parent="jOmrKNcZ774Khs-bOahz-118" vertex="1">
          <mxGeometry x="190" width="10" height="10" as="geometry" />
        </mxCell>
        <mxCell id="jOmrKNcZ774Khs-bOahz-32" value="" style="whiteSpace=wrap;html=1;aspect=fixed;fillColor=#FF0080;" parent="jOmrKNcZ774Khs-bOahz-118" vertex="1">
          <mxGeometry x="200" width="10" height="10" as="geometry" />
        </mxCell>
        <mxCell id="jOmrKNcZ774Khs-bOahz-33" value="" style="whiteSpace=wrap;html=1;aspect=fixed;fillColor=#FF0080;" parent="jOmrKNcZ774Khs-bOahz-118" vertex="1">
          <mxGeometry x="210" width="10" height="10" as="geometry" />
        </mxCell>
        <mxCell id="jOmrKNcZ774Khs-bOahz-34" value="" style="whiteSpace=wrap;html=1;aspect=fixed;fillColor=#FF0080;" parent="jOmrKNcZ774Khs-bOahz-118" vertex="1">
          <mxGeometry x="220" width="10" height="10" as="geometry" />
        </mxCell>
        <mxCell id="jOmrKNcZ774Khs-bOahz-35" value="" style="whiteSpace=wrap;html=1;aspect=fixed;fillColor=#FFCE9F;" parent="jOmrKNcZ774Khs-bOahz-118" vertex="1">
          <mxGeometry x="230" width="10" height="10" as="geometry" />
        </mxCell>
        <mxCell id="jOmrKNcZ774Khs-bOahz-36" value="" style="whiteSpace=wrap;html=1;aspect=fixed;fillColor=#FFCE9F;" parent="jOmrKNcZ774Khs-bOahz-118" vertex="1">
          <mxGeometry x="240" width="10" height="10" as="geometry" />
        </mxCell>
        <mxCell id="jOmrKNcZ774Khs-bOahz-37" value="" style="whiteSpace=wrap;html=1;aspect=fixed;fillColor=#FFCE9F;" parent="jOmrKNcZ774Khs-bOahz-118" vertex="1">
          <mxGeometry x="250" width="10" height="10" as="geometry" />
        </mxCell>
        <mxCell id="jOmrKNcZ774Khs-bOahz-38" value="" style="whiteSpace=wrap;html=1;aspect=fixed;fillColor=#00FF80;" parent="jOmrKNcZ774Khs-bOahz-118" vertex="1">
          <mxGeometry x="260" width="10" height="10" as="geometry" />
        </mxCell>
        <mxCell id="jOmrKNcZ774Khs-bOahz-39" value="" style="whiteSpace=wrap;html=1;aspect=fixed;fillColor=#00FF80;" parent="jOmrKNcZ774Khs-bOahz-118" vertex="1">
          <mxGeometry x="270" width="10" height="10" as="geometry" />
        </mxCell>
        <mxCell id="jOmrKNcZ774Khs-bOahz-40" value="" style="whiteSpace=wrap;html=1;aspect=fixed;fillColor=#00FF80;" parent="jOmrKNcZ774Khs-bOahz-118" vertex="1">
          <mxGeometry x="280" width="10" height="10" as="geometry" />
        </mxCell>
        <mxCell id="jOmrKNcZ774Khs-bOahz-41" value="" style="whiteSpace=wrap;html=1;aspect=fixed;fillColor=#FFFF99;" parent="jOmrKNcZ774Khs-bOahz-118" vertex="1">
          <mxGeometry x="290" width="10" height="10" as="geometry" />
        </mxCell>
        <mxCell id="jOmrKNcZ774Khs-bOahz-42" value="" style="whiteSpace=wrap;html=1;aspect=fixed;fillColor=#FFCCCC;" parent="jOmrKNcZ774Khs-bOahz-118" vertex="1">
          <mxGeometry x="300" width="10" height="10" as="geometry" />
        </mxCell>
        <mxCell id="jOmrKNcZ774Khs-bOahz-77" value="" style="whiteSpace=wrap;html=1;aspect=fixed;fillColor=#99CCFF;" parent="jOmrKNcZ774Khs-bOahz-118" vertex="1">
          <mxGeometry x="310" width="10" height="10" as="geometry" />
        </mxCell>
        <mxCell id="jOmrKNcZ774Khs-bOahz-119" value="" style="group" parent="WIyWlLk6GJQsqaUBKTNV-1" vertex="1" connectable="0">
          <mxGeometry x="470" y="20" width="320" height="10" as="geometry" />
        </mxCell>
        <mxCell id="jOmrKNcZ774Khs-bOahz-120" value="" style="whiteSpace=wrap;html=1;aspect=fixed;" parent="jOmrKNcZ774Khs-bOahz-119" vertex="1">
          <mxGeometry width="10" height="10" as="geometry" />
        </mxCell>
        <mxCell id="jOmrKNcZ774Khs-bOahz-121" value="" style="whiteSpace=wrap;html=1;aspect=fixed;" parent="jOmrKNcZ774Khs-bOahz-119" vertex="1">
          <mxGeometry x="10" width="10" height="10" as="geometry" />
        </mxCell>
        <mxCell id="jOmrKNcZ774Khs-bOahz-122" value="" style="whiteSpace=wrap;html=1;aspect=fixed;" parent="jOmrKNcZ774Khs-bOahz-119" vertex="1">
          <mxGeometry x="20" width="10" height="10" as="geometry" />
        </mxCell>
        <mxCell id="jOmrKNcZ774Khs-bOahz-123" value="" style="whiteSpace=wrap;html=1;aspect=fixed;" parent="jOmrKNcZ774Khs-bOahz-119" vertex="1">
          <mxGeometry x="30" width="10" height="10" as="geometry" />
        </mxCell>
        <mxCell id="jOmrKNcZ774Khs-bOahz-124" value="" style="whiteSpace=wrap;html=1;aspect=fixed;" parent="jOmrKNcZ774Khs-bOahz-119" vertex="1">
          <mxGeometry x="40" width="10" height="10" as="geometry" />
        </mxCell>
        <mxCell id="jOmrKNcZ774Khs-bOahz-125" value="" style="whiteSpace=wrap;html=1;aspect=fixed;" parent="jOmrKNcZ774Khs-bOahz-119" vertex="1">
          <mxGeometry x="50" width="10" height="10" as="geometry" />
        </mxCell>
        <mxCell id="jOmrKNcZ774Khs-bOahz-126" value="" style="whiteSpace=wrap;html=1;aspect=fixed;" parent="jOmrKNcZ774Khs-bOahz-119" vertex="1">
          <mxGeometry x="60" width="10" height="10" as="geometry" />
        </mxCell>
        <mxCell id="jOmrKNcZ774Khs-bOahz-127" value="" style="whiteSpace=wrap;html=1;aspect=fixed;" parent="jOmrKNcZ774Khs-bOahz-119" vertex="1">
          <mxGeometry x="70" width="10" height="10" as="geometry" />
        </mxCell>
        <mxCell id="jOmrKNcZ774Khs-bOahz-128" value="" style="whiteSpace=wrap;html=1;aspect=fixed;" parent="jOmrKNcZ774Khs-bOahz-119" vertex="1">
          <mxGeometry x="80" width="10" height="10" as="geometry" />
        </mxCell>
        <mxCell id="jOmrKNcZ774Khs-bOahz-129" value="" style="whiteSpace=wrap;html=1;aspect=fixed;" parent="jOmrKNcZ774Khs-bOahz-119" vertex="1">
          <mxGeometry x="90" width="10" height="10" as="geometry" />
        </mxCell>
        <mxCell id="jOmrKNcZ774Khs-bOahz-130" value="" style="whiteSpace=wrap;html=1;aspect=fixed;" parent="jOmrKNcZ774Khs-bOahz-119" vertex="1">
          <mxGeometry x="100" width="10" height="10" as="geometry" />
        </mxCell>
        <mxCell id="jOmrKNcZ774Khs-bOahz-131" value="" style="whiteSpace=wrap;html=1;aspect=fixed;" parent="jOmrKNcZ774Khs-bOahz-119" vertex="1">
          <mxGeometry x="110" width="10" height="10" as="geometry" />
        </mxCell>
        <mxCell id="jOmrKNcZ774Khs-bOahz-132" value="" style="whiteSpace=wrap;html=1;aspect=fixed;" parent="jOmrKNcZ774Khs-bOahz-119" vertex="1">
          <mxGeometry x="120" width="10" height="10" as="geometry" />
        </mxCell>
        <mxCell id="jOmrKNcZ774Khs-bOahz-133" value="" style="whiteSpace=wrap;html=1;aspect=fixed;" parent="jOmrKNcZ774Khs-bOahz-119" vertex="1">
          <mxGeometry x="130" width="10" height="10" as="geometry" />
        </mxCell>
        <mxCell id="jOmrKNcZ774Khs-bOahz-134" value="" style="whiteSpace=wrap;html=1;aspect=fixed;" parent="jOmrKNcZ774Khs-bOahz-119" vertex="1">
          <mxGeometry x="140" width="10" height="10" as="geometry" />
        </mxCell>
        <mxCell id="jOmrKNcZ774Khs-bOahz-135" value="" style="whiteSpace=wrap;html=1;aspect=fixed;" parent="jOmrKNcZ774Khs-bOahz-119" vertex="1">
          <mxGeometry x="150" width="10" height="10" as="geometry" />
        </mxCell>
        <mxCell id="jOmrKNcZ774Khs-bOahz-136" value="" style="whiteSpace=wrap;html=1;aspect=fixed;" parent="jOmrKNcZ774Khs-bOahz-119" vertex="1">
          <mxGeometry x="160" width="10" height="10" as="geometry" />
        </mxCell>
        <mxCell id="jOmrKNcZ774Khs-bOahz-137" value="" style="whiteSpace=wrap;html=1;aspect=fixed;" parent="jOmrKNcZ774Khs-bOahz-119" vertex="1">
          <mxGeometry x="170" width="10" height="10" as="geometry" />
        </mxCell>
        <mxCell id="jOmrKNcZ774Khs-bOahz-138" value="" style="whiteSpace=wrap;html=1;aspect=fixed;" parent="jOmrKNcZ774Khs-bOahz-119" vertex="1">
          <mxGeometry x="180" width="10" height="10" as="geometry" />
        </mxCell>
        <mxCell id="jOmrKNcZ774Khs-bOahz-139" value="" style="whiteSpace=wrap;html=1;aspect=fixed;" parent="jOmrKNcZ774Khs-bOahz-119" vertex="1">
          <mxGeometry x="190" width="10" height="10" as="geometry" />
        </mxCell>
        <mxCell id="jOmrKNcZ774Khs-bOahz-140" value="" style="whiteSpace=wrap;html=1;aspect=fixed;" parent="jOmrKNcZ774Khs-bOahz-119" vertex="1">
          <mxGeometry x="200" width="10" height="10" as="geometry" />
        </mxCell>
        <mxCell id="jOmrKNcZ774Khs-bOahz-141" value="" style="whiteSpace=wrap;html=1;aspect=fixed;" parent="jOmrKNcZ774Khs-bOahz-119" vertex="1">
          <mxGeometry x="210" width="10" height="10" as="geometry" />
        </mxCell>
        <mxCell id="jOmrKNcZ774Khs-bOahz-142" value="" style="whiteSpace=wrap;html=1;aspect=fixed;" parent="jOmrKNcZ774Khs-bOahz-119" vertex="1">
          <mxGeometry x="220" width="10" height="10" as="geometry" />
        </mxCell>
        <mxCell id="jOmrKNcZ774Khs-bOahz-143" value="" style="whiteSpace=wrap;html=1;aspect=fixed;" parent="jOmrKNcZ774Khs-bOahz-119" vertex="1">
          <mxGeometry x="230" width="10" height="10" as="geometry" />
        </mxCell>
        <mxCell id="jOmrKNcZ774Khs-bOahz-144" value="" style="whiteSpace=wrap;html=1;aspect=fixed;" parent="jOmrKNcZ774Khs-bOahz-119" vertex="1">
          <mxGeometry x="240" width="10" height="10" as="geometry" />
        </mxCell>
        <mxCell id="jOmrKNcZ774Khs-bOahz-145" value="" style="whiteSpace=wrap;html=1;aspect=fixed;" parent="jOmrKNcZ774Khs-bOahz-119" vertex="1">
          <mxGeometry x="250" width="10" height="10" as="geometry" />
        </mxCell>
        <mxCell id="jOmrKNcZ774Khs-bOahz-146" value="" style="whiteSpace=wrap;html=1;aspect=fixed;" parent="jOmrKNcZ774Khs-bOahz-119" vertex="1">
          <mxGeometry x="260" width="10" height="10" as="geometry" />
        </mxCell>
        <mxCell id="jOmrKNcZ774Khs-bOahz-147" value="" style="whiteSpace=wrap;html=1;aspect=fixed;" parent="jOmrKNcZ774Khs-bOahz-119" vertex="1">
          <mxGeometry x="270" width="10" height="10" as="geometry" />
        </mxCell>
        <mxCell id="jOmrKNcZ774Khs-bOahz-148" value="" style="whiteSpace=wrap;html=1;aspect=fixed;fillColor=#FFCE9F;" parent="jOmrKNcZ774Khs-bOahz-119" vertex="1">
          <mxGeometry x="280" width="10" height="10" as="geometry" />
        </mxCell>
        <mxCell id="jOmrKNcZ774Khs-bOahz-149" value="" style="whiteSpace=wrap;html=1;aspect=fixed;fillColor=#FFCE9F;" parent="jOmrKNcZ774Khs-bOahz-119" vertex="1">
          <mxGeometry x="290" width="10" height="10" as="geometry" />
        </mxCell>
        <mxCell id="jOmrKNcZ774Khs-bOahz-150" value="" style="whiteSpace=wrap;html=1;aspect=fixed;fillColor=#FFCE9F;" parent="jOmrKNcZ774Khs-bOahz-119" vertex="1">
          <mxGeometry x="300" width="10" height="10" as="geometry" />
        </mxCell>
        <mxCell id="jOmrKNcZ774Khs-bOahz-151" value="" style="whiteSpace=wrap;html=1;aspect=fixed;fillColor=#FFCE9F;" parent="jOmrKNcZ774Khs-bOahz-119" vertex="1">
          <mxGeometry x="310" width="10" height="10" as="geometry" />
        </mxCell>
        <mxCell id="jOmrKNcZ774Khs-bOahz-154" value="Registro Comando Pokemon Atacante (32 bits)" style="swimlane;fontStyle=2;align=center;verticalAlign=top;childLayout=stackLayout;horizontal=1;startSize=26;horizontalStack=0;resizeParent=1;resizeLast=0;collapsible=1;marginBottom=0;rounded=0;shadow=0;strokeWidth=1;" parent="WIyWlLk6GJQsqaUBKTNV-1" vertex="1">
          <mxGeometry x="470" y="400" width="320" height="350" as="geometry">
            <mxRectangle x="230" y="140" width="160" height="26" as="alternateBounds" />
          </mxGeometry>
        </mxCell>
        <mxCell id="jOmrKNcZ774Khs-bOahz-155" value="Bit 3-0: Comando." style="text;align=left;verticalAlign=top;spacingLeft=4;spacingRight=4;overflow=hidden;rotatable=0;points=[[0,0.5],[1,0.5]];portConstraint=eastwest;labelBackgroundColor=#F19C99;" parent="jOmrKNcZ774Khs-bOahz-154" vertex="1">
          <mxGeometry y="26" width="320" height="26" as="geometry" />
        </mxCell>
        <mxCell id="jOmrKNcZ774Khs-bOahz-156" value="" style="line;html=1;strokeWidth=1;align=left;verticalAlign=middle;spacingTop=-1;spacingLeft=3;spacingRight=3;rotatable=0;labelPosition=right;points=[];portConstraint=eastwest;" parent="jOmrKNcZ774Khs-bOahz-154" vertex="1">
          <mxGeometry y="52" width="320" height="8" as="geometry" />
        </mxCell>
        <mxCell id="jOmrKNcZ774Khs-bOahz-157" value="CMD 1: Setear pokemon. Se copia los stats del pokemon&#xa;con dirección indicada en el registro status del atacante." style="text;align=left;verticalAlign=top;spacingLeft=4;spacingRight=4;overflow=hidden;rotatable=0;points=[[0,0.5],[1,0.5]];portConstraint=eastwest;" parent="jOmrKNcZ774Khs-bOahz-154" vertex="1">
          <mxGeometry y="60" width="320" height="40" as="geometry" />
        </mxCell>
        <mxCell id="jOmrKNcZ774Khs-bOahz-158" value="CMD 2: Cambiar el estado del pokemon. Indicar el estado&#xa;en los siguientes 3 bits." style="text;align=left;verticalAlign=top;spacingLeft=4;spacingRight=4;overflow=hidden;rotatable=0;points=[[0,0.5],[1,0.5]];portConstraint=eastwest;" parent="jOmrKNcZ774Khs-bOahz-154" vertex="1">
          <mxGeometry y="100" width="320" height="40" as="geometry" />
        </mxCell>
        <mxCell id="jOmrKNcZ774Khs-bOahz-569" value="CMD 3: Cambiar la experiencia. Los siguientes 7 indican &#xa;la experiencia nueva." style="text;align=left;verticalAlign=top;spacingLeft=4;spacingRight=4;overflow=hidden;rotatable=0;points=[[0,0.5],[1,0.5]];portConstraint=eastwest;" parent="jOmrKNcZ774Khs-bOahz-154" vertex="1">
          <mxGeometry y="140" width="320" height="30" as="geometry" />
        </mxCell>
        <mxCell id="6VLWFbxtcUZiDCJLcJdM-0" value="CMD 4: Subir de nivel." style="text;align=left;verticalAlign=top;spacingLeft=4;spacingRight=4;overflow=hidden;rotatable=0;points=[[0,0.5],[1,0.5]];portConstraint=eastwest;" vertex="1" parent="jOmrKNcZ774Khs-bOahz-154">
          <mxGeometry y="170" width="320" height="40" as="geometry" />
        </mxCell>
        <mxCell id="6VLWFbxtcUZiDCJLcJdM-1" value="CMD 5: Evolucionar pokemon. Los siguientes 8 bits &#xa;indican el id del pokemon a evolucionar." style="text;align=left;verticalAlign=top;spacingLeft=4;spacingRight=4;overflow=hidden;rotatable=0;points=[[0,0.5],[1,0.5]];portConstraint=eastwest;" vertex="1" parent="jOmrKNcZ774Khs-bOahz-154">
          <mxGeometry y="210" width="320" height="40" as="geometry" />
        </mxCell>
        <mxCell id="6VLWFbxtcUZiDCJLcJdM-74" value="CMD 6: Setear movimiento. Los siguiente 2 bits indican &#xa;numero de movimiento. Se copia los stats del movimiento&#xa; con dirección indicada en el registro status del atacante." style="text;align=left;verticalAlign=top;spacingLeft=4;spacingRight=4;overflow=hidden;rotatable=0;points=[[0,0.5],[1,0.5]];portConstraint=eastwest;" vertex="1" parent="jOmrKNcZ774Khs-bOahz-154">
          <mxGeometry y="250" width="320" height="60" as="geometry" />
        </mxCell>
        <mxCell id="6VLWFbxtcUZiDCJLcJdM-75" value="CMD 7: Usar movimiento." style="text;align=left;verticalAlign=top;spacingLeft=4;spacingRight=4;overflow=hidden;rotatable=0;points=[[0,0.5],[1,0.5]];portConstraint=eastwest;" vertex="1" parent="jOmrKNcZ774Khs-bOahz-154">
          <mxGeometry y="310" width="320" height="40" as="geometry" />
        </mxCell>
        <mxCell id="jOmrKNcZ774Khs-bOahz-162" value="" style="group" parent="WIyWlLk6GJQsqaUBKTNV-1" vertex="1" connectable="0">
          <mxGeometry x="470" y="380" width="320" height="10" as="geometry" />
        </mxCell>
        <mxCell id="jOmrKNcZ774Khs-bOahz-163" value="" style="whiteSpace=wrap;html=1;aspect=fixed;" parent="jOmrKNcZ774Khs-bOahz-162" vertex="1">
          <mxGeometry width="10" height="10" as="geometry" />
        </mxCell>
        <mxCell id="jOmrKNcZ774Khs-bOahz-164" value="" style="whiteSpace=wrap;html=1;aspect=fixed;" parent="jOmrKNcZ774Khs-bOahz-162" vertex="1">
          <mxGeometry x="10" width="10" height="10" as="geometry" />
        </mxCell>
        <mxCell id="jOmrKNcZ774Khs-bOahz-165" value="" style="whiteSpace=wrap;html=1;aspect=fixed;" parent="jOmrKNcZ774Khs-bOahz-162" vertex="1">
          <mxGeometry x="20" width="10" height="10" as="geometry" />
        </mxCell>
        <mxCell id="jOmrKNcZ774Khs-bOahz-166" value="" style="whiteSpace=wrap;html=1;aspect=fixed;" parent="jOmrKNcZ774Khs-bOahz-162" vertex="1">
          <mxGeometry x="30" width="10" height="10" as="geometry" />
        </mxCell>
        <mxCell id="jOmrKNcZ774Khs-bOahz-167" value="" style="whiteSpace=wrap;html=1;aspect=fixed;" parent="jOmrKNcZ774Khs-bOahz-162" vertex="1">
          <mxGeometry x="40" width="10" height="10" as="geometry" />
        </mxCell>
        <mxCell id="jOmrKNcZ774Khs-bOahz-168" value="" style="whiteSpace=wrap;html=1;aspect=fixed;" parent="jOmrKNcZ774Khs-bOahz-162" vertex="1">
          <mxGeometry x="50" width="10" height="10" as="geometry" />
        </mxCell>
        <mxCell id="jOmrKNcZ774Khs-bOahz-169" value="" style="whiteSpace=wrap;html=1;aspect=fixed;" parent="jOmrKNcZ774Khs-bOahz-162" vertex="1">
          <mxGeometry x="60" width="10" height="10" as="geometry" />
        </mxCell>
        <mxCell id="jOmrKNcZ774Khs-bOahz-170" value="" style="whiteSpace=wrap;html=1;aspect=fixed;" parent="jOmrKNcZ774Khs-bOahz-162" vertex="1">
          <mxGeometry x="70" width="10" height="10" as="geometry" />
        </mxCell>
        <mxCell id="jOmrKNcZ774Khs-bOahz-171" value="" style="whiteSpace=wrap;html=1;aspect=fixed;" parent="jOmrKNcZ774Khs-bOahz-162" vertex="1">
          <mxGeometry x="80" width="10" height="10" as="geometry" />
        </mxCell>
        <mxCell id="jOmrKNcZ774Khs-bOahz-172" value="" style="whiteSpace=wrap;html=1;aspect=fixed;" parent="jOmrKNcZ774Khs-bOahz-162" vertex="1">
          <mxGeometry x="90" width="10" height="10" as="geometry" />
        </mxCell>
        <mxCell id="jOmrKNcZ774Khs-bOahz-173" value="" style="whiteSpace=wrap;html=1;aspect=fixed;" parent="jOmrKNcZ774Khs-bOahz-162" vertex="1">
          <mxGeometry x="100" width="10" height="10" as="geometry" />
        </mxCell>
        <mxCell id="jOmrKNcZ774Khs-bOahz-174" value="" style="whiteSpace=wrap;html=1;aspect=fixed;" parent="jOmrKNcZ774Khs-bOahz-162" vertex="1">
          <mxGeometry x="110" width="10" height="10" as="geometry" />
        </mxCell>
        <mxCell id="jOmrKNcZ774Khs-bOahz-175" value="" style="whiteSpace=wrap;html=1;aspect=fixed;" parent="jOmrKNcZ774Khs-bOahz-162" vertex="1">
          <mxGeometry x="120" width="10" height="10" as="geometry" />
        </mxCell>
        <mxCell id="jOmrKNcZ774Khs-bOahz-176" value="" style="whiteSpace=wrap;html=1;aspect=fixed;" parent="jOmrKNcZ774Khs-bOahz-162" vertex="1">
          <mxGeometry x="130" width="10" height="10" as="geometry" />
        </mxCell>
        <mxCell id="jOmrKNcZ774Khs-bOahz-177" value="" style="whiteSpace=wrap;html=1;aspect=fixed;" parent="jOmrKNcZ774Khs-bOahz-162" vertex="1">
          <mxGeometry x="140" width="10" height="10" as="geometry" />
        </mxCell>
        <mxCell id="jOmrKNcZ774Khs-bOahz-178" value="" style="whiteSpace=wrap;html=1;aspect=fixed;" parent="jOmrKNcZ774Khs-bOahz-162" vertex="1">
          <mxGeometry x="150" width="10" height="10" as="geometry" />
        </mxCell>
        <mxCell id="jOmrKNcZ774Khs-bOahz-179" value="" style="whiteSpace=wrap;html=1;aspect=fixed;" parent="jOmrKNcZ774Khs-bOahz-162" vertex="1">
          <mxGeometry x="160" width="10" height="10" as="geometry" />
        </mxCell>
        <mxCell id="jOmrKNcZ774Khs-bOahz-180" value="" style="whiteSpace=wrap;html=1;aspect=fixed;" parent="jOmrKNcZ774Khs-bOahz-162" vertex="1">
          <mxGeometry x="170" width="10" height="10" as="geometry" />
        </mxCell>
        <mxCell id="jOmrKNcZ774Khs-bOahz-181" value="" style="whiteSpace=wrap;html=1;aspect=fixed;" parent="jOmrKNcZ774Khs-bOahz-162" vertex="1">
          <mxGeometry x="180" width="10" height="10" as="geometry" />
        </mxCell>
        <mxCell id="jOmrKNcZ774Khs-bOahz-182" value="" style="whiteSpace=wrap;html=1;aspect=fixed;" parent="jOmrKNcZ774Khs-bOahz-162" vertex="1">
          <mxGeometry x="190" width="10" height="10" as="geometry" />
        </mxCell>
        <mxCell id="jOmrKNcZ774Khs-bOahz-183" value="" style="whiteSpace=wrap;html=1;aspect=fixed;" parent="jOmrKNcZ774Khs-bOahz-162" vertex="1">
          <mxGeometry x="200" width="10" height="10" as="geometry" />
        </mxCell>
        <mxCell id="jOmrKNcZ774Khs-bOahz-184" value="" style="whiteSpace=wrap;html=1;aspect=fixed;" parent="jOmrKNcZ774Khs-bOahz-162" vertex="1">
          <mxGeometry x="210" width="10" height="10" as="geometry" />
        </mxCell>
        <mxCell id="jOmrKNcZ774Khs-bOahz-185" value="" style="whiteSpace=wrap;html=1;aspect=fixed;" parent="jOmrKNcZ774Khs-bOahz-162" vertex="1">
          <mxGeometry x="220" width="10" height="10" as="geometry" />
        </mxCell>
        <mxCell id="jOmrKNcZ774Khs-bOahz-186" value="" style="whiteSpace=wrap;html=1;aspect=fixed;" parent="jOmrKNcZ774Khs-bOahz-162" vertex="1">
          <mxGeometry x="230" width="10" height="10" as="geometry" />
        </mxCell>
        <mxCell id="jOmrKNcZ774Khs-bOahz-187" value="" style="whiteSpace=wrap;html=1;aspect=fixed;" parent="jOmrKNcZ774Khs-bOahz-162" vertex="1">
          <mxGeometry x="240" width="10" height="10" as="geometry" />
        </mxCell>
        <mxCell id="jOmrKNcZ774Khs-bOahz-188" value="" style="whiteSpace=wrap;html=1;aspect=fixed;" parent="jOmrKNcZ774Khs-bOahz-162" vertex="1">
          <mxGeometry x="250" width="10" height="10" as="geometry" />
        </mxCell>
        <mxCell id="jOmrKNcZ774Khs-bOahz-189" value="" style="whiteSpace=wrap;html=1;aspect=fixed;" parent="jOmrKNcZ774Khs-bOahz-162" vertex="1">
          <mxGeometry x="260" width="10" height="10" as="geometry" />
        </mxCell>
        <mxCell id="jOmrKNcZ774Khs-bOahz-190" value="" style="whiteSpace=wrap;html=1;aspect=fixed;" parent="jOmrKNcZ774Khs-bOahz-162" vertex="1">
          <mxGeometry x="270" width="10" height="10" as="geometry" />
        </mxCell>
        <mxCell id="jOmrKNcZ774Khs-bOahz-191" value="" style="whiteSpace=wrap;html=1;aspect=fixed;fillColor=#F19C99;" parent="jOmrKNcZ774Khs-bOahz-162" vertex="1">
          <mxGeometry x="280" width="10" height="10" as="geometry" />
        </mxCell>
        <mxCell id="jOmrKNcZ774Khs-bOahz-192" value="" style="whiteSpace=wrap;html=1;aspect=fixed;fillColor=#F19C99;" parent="jOmrKNcZ774Khs-bOahz-162" vertex="1">
          <mxGeometry x="290" width="10" height="10" as="geometry" />
        </mxCell>
        <mxCell id="jOmrKNcZ774Khs-bOahz-193" value="" style="whiteSpace=wrap;html=1;aspect=fixed;fillColor=#F19C99;" parent="jOmrKNcZ774Khs-bOahz-162" vertex="1">
          <mxGeometry x="300" width="10" height="10" as="geometry" />
        </mxCell>
        <mxCell id="jOmrKNcZ774Khs-bOahz-194" value="" style="whiteSpace=wrap;html=1;aspect=fixed;fillColor=#F19C99;" parent="jOmrKNcZ774Khs-bOahz-162" vertex="1">
          <mxGeometry x="310" width="10" height="10" as="geometry" />
        </mxCell>
        <mxCell id="jOmrKNcZ774Khs-bOahz-231" value="" style="group" parent="WIyWlLk6GJQsqaUBKTNV-1" vertex="1" connectable="0">
          <mxGeometry x="800" y="106" width="320" height="10" as="geometry" />
        </mxCell>
        <mxCell id="jOmrKNcZ774Khs-bOahz-232" value="" style="whiteSpace=wrap;html=1;aspect=fixed;" parent="jOmrKNcZ774Khs-bOahz-231" vertex="1">
          <mxGeometry width="10" height="10" as="geometry" />
        </mxCell>
        <mxCell id="jOmrKNcZ774Khs-bOahz-233" value="" style="whiteSpace=wrap;html=1;aspect=fixed;" parent="jOmrKNcZ774Khs-bOahz-231" vertex="1">
          <mxGeometry x="10" width="10" height="10" as="geometry" />
        </mxCell>
        <mxCell id="jOmrKNcZ774Khs-bOahz-234" value="" style="whiteSpace=wrap;html=1;aspect=fixed;" parent="jOmrKNcZ774Khs-bOahz-231" vertex="1">
          <mxGeometry x="20" width="10" height="10" as="geometry" />
        </mxCell>
        <mxCell id="jOmrKNcZ774Khs-bOahz-235" value="" style="whiteSpace=wrap;html=1;aspect=fixed;" parent="jOmrKNcZ774Khs-bOahz-231" vertex="1">
          <mxGeometry x="30" width="10" height="10" as="geometry" />
        </mxCell>
        <mxCell id="jOmrKNcZ774Khs-bOahz-236" value="" style="whiteSpace=wrap;html=1;aspect=fixed;" parent="jOmrKNcZ774Khs-bOahz-231" vertex="1">
          <mxGeometry x="40" width="10" height="10" as="geometry" />
        </mxCell>
        <mxCell id="jOmrKNcZ774Khs-bOahz-237" value="" style="whiteSpace=wrap;html=1;aspect=fixed;" parent="jOmrKNcZ774Khs-bOahz-231" vertex="1">
          <mxGeometry x="50" width="10" height="10" as="geometry" />
        </mxCell>
        <mxCell id="jOmrKNcZ774Khs-bOahz-238" value="" style="whiteSpace=wrap;html=1;aspect=fixed;" parent="jOmrKNcZ774Khs-bOahz-231" vertex="1">
          <mxGeometry x="60" width="10" height="10" as="geometry" />
        </mxCell>
        <mxCell id="jOmrKNcZ774Khs-bOahz-239" value="" style="whiteSpace=wrap;html=1;aspect=fixed;" parent="jOmrKNcZ774Khs-bOahz-231" vertex="1">
          <mxGeometry x="70" width="10" height="10" as="geometry" />
        </mxCell>
        <mxCell id="jOmrKNcZ774Khs-bOahz-240" value="" style="whiteSpace=wrap;html=1;aspect=fixed;" parent="jOmrKNcZ774Khs-bOahz-231" vertex="1">
          <mxGeometry x="80" width="10" height="10" as="geometry" />
        </mxCell>
        <mxCell id="jOmrKNcZ774Khs-bOahz-241" value="" style="whiteSpace=wrap;html=1;aspect=fixed;" parent="jOmrKNcZ774Khs-bOahz-231" vertex="1">
          <mxGeometry x="90" width="10" height="10" as="geometry" />
        </mxCell>
        <mxCell id="jOmrKNcZ774Khs-bOahz-242" value="" style="whiteSpace=wrap;html=1;aspect=fixed;" parent="jOmrKNcZ774Khs-bOahz-231" vertex="1">
          <mxGeometry x="100" width="10" height="10" as="geometry" />
        </mxCell>
        <mxCell id="jOmrKNcZ774Khs-bOahz-243" value="" style="whiteSpace=wrap;html=1;aspect=fixed;" parent="jOmrKNcZ774Khs-bOahz-231" vertex="1">
          <mxGeometry x="110" width="10" height="10" as="geometry" />
        </mxCell>
        <mxCell id="jOmrKNcZ774Khs-bOahz-244" value="" style="whiteSpace=wrap;html=1;aspect=fixed;" parent="jOmrKNcZ774Khs-bOahz-231" vertex="1">
          <mxGeometry x="120" width="10" height="10" as="geometry" />
        </mxCell>
        <mxCell id="jOmrKNcZ774Khs-bOahz-245" value="" style="whiteSpace=wrap;html=1;aspect=fixed;" parent="jOmrKNcZ774Khs-bOahz-231" vertex="1">
          <mxGeometry x="130" width="10" height="10" as="geometry" />
        </mxCell>
        <mxCell id="jOmrKNcZ774Khs-bOahz-246" value="" style="whiteSpace=wrap;html=1;aspect=fixed;" parent="jOmrKNcZ774Khs-bOahz-231" vertex="1">
          <mxGeometry x="140" width="10" height="10" as="geometry" />
        </mxCell>
        <mxCell id="jOmrKNcZ774Khs-bOahz-247" value="" style="whiteSpace=wrap;html=1;aspect=fixed;" parent="jOmrKNcZ774Khs-bOahz-231" vertex="1">
          <mxGeometry x="150" width="10" height="10" as="geometry" />
        </mxCell>
        <mxCell id="jOmrKNcZ774Khs-bOahz-248" value="" style="whiteSpace=wrap;html=1;aspect=fixed;" parent="jOmrKNcZ774Khs-bOahz-231" vertex="1">
          <mxGeometry x="160" width="10" height="10" as="geometry" />
        </mxCell>
        <mxCell id="jOmrKNcZ774Khs-bOahz-249" value="" style="whiteSpace=wrap;html=1;aspect=fixed;" parent="jOmrKNcZ774Khs-bOahz-231" vertex="1">
          <mxGeometry x="170" width="10" height="10" as="geometry" />
        </mxCell>
        <mxCell id="jOmrKNcZ774Khs-bOahz-250" value="" style="whiteSpace=wrap;html=1;aspect=fixed;" parent="jOmrKNcZ774Khs-bOahz-231" vertex="1">
          <mxGeometry x="180" width="10" height="10" as="geometry" />
        </mxCell>
        <mxCell id="jOmrKNcZ774Khs-bOahz-251" value="" style="whiteSpace=wrap;html=1;aspect=fixed;" parent="jOmrKNcZ774Khs-bOahz-231" vertex="1">
          <mxGeometry x="190" width="10" height="10" as="geometry" />
        </mxCell>
        <mxCell id="jOmrKNcZ774Khs-bOahz-252" value="" style="whiteSpace=wrap;html=1;aspect=fixed;" parent="jOmrKNcZ774Khs-bOahz-231" vertex="1">
          <mxGeometry x="200" width="10" height="10" as="geometry" />
        </mxCell>
        <mxCell id="jOmrKNcZ774Khs-bOahz-253" value="" style="whiteSpace=wrap;html=1;aspect=fixed;" parent="jOmrKNcZ774Khs-bOahz-231" vertex="1">
          <mxGeometry x="210" width="10" height="10" as="geometry" />
        </mxCell>
        <mxCell id="jOmrKNcZ774Khs-bOahz-254" value="" style="whiteSpace=wrap;html=1;aspect=fixed;" parent="jOmrKNcZ774Khs-bOahz-231" vertex="1">
          <mxGeometry x="220" width="10" height="10" as="geometry" />
        </mxCell>
        <mxCell id="jOmrKNcZ774Khs-bOahz-255" value="" style="whiteSpace=wrap;html=1;aspect=fixed;" parent="jOmrKNcZ774Khs-bOahz-231" vertex="1">
          <mxGeometry x="230" width="10" height="10" as="geometry" />
        </mxCell>
        <mxCell id="jOmrKNcZ774Khs-bOahz-256" value="" style="whiteSpace=wrap;html=1;aspect=fixed;" parent="jOmrKNcZ774Khs-bOahz-231" vertex="1">
          <mxGeometry x="240" width="10" height="10" as="geometry" />
        </mxCell>
        <mxCell id="jOmrKNcZ774Khs-bOahz-257" value="" style="whiteSpace=wrap;html=1;aspect=fixed;" parent="jOmrKNcZ774Khs-bOahz-231" vertex="1">
          <mxGeometry x="250" width="10" height="10" as="geometry" />
        </mxCell>
        <mxCell id="jOmrKNcZ774Khs-bOahz-258" value="" style="whiteSpace=wrap;html=1;aspect=fixed;" parent="jOmrKNcZ774Khs-bOahz-231" vertex="1">
          <mxGeometry x="260" width="10" height="10" as="geometry" />
        </mxCell>
        <mxCell id="jOmrKNcZ774Khs-bOahz-259" value="" style="whiteSpace=wrap;html=1;aspect=fixed;" parent="jOmrKNcZ774Khs-bOahz-231" vertex="1">
          <mxGeometry x="270" width="10" height="10" as="geometry" />
        </mxCell>
        <mxCell id="jOmrKNcZ774Khs-bOahz-260" value="" style="whiteSpace=wrap;html=1;aspect=fixed;fillColor=#FFCE9F;" parent="jOmrKNcZ774Khs-bOahz-231" vertex="1">
          <mxGeometry x="280" width="10" height="10" as="geometry" />
        </mxCell>
        <mxCell id="jOmrKNcZ774Khs-bOahz-261" value="" style="whiteSpace=wrap;html=1;aspect=fixed;fillColor=#FFCE9F;" parent="jOmrKNcZ774Khs-bOahz-231" vertex="1">
          <mxGeometry x="290" width="10" height="10" as="geometry" />
        </mxCell>
        <mxCell id="jOmrKNcZ774Khs-bOahz-262" value="" style="whiteSpace=wrap;html=1;aspect=fixed;fillColor=#FFCE9F;" parent="jOmrKNcZ774Khs-bOahz-231" vertex="1">
          <mxGeometry x="300" width="10" height="10" as="geometry" />
        </mxCell>
        <mxCell id="jOmrKNcZ774Khs-bOahz-263" value="" style="whiteSpace=wrap;html=1;aspect=fixed;fillColor=#FFCE9F;" parent="jOmrKNcZ774Khs-bOahz-231" vertex="1">
          <mxGeometry x="310" width="10" height="10" as="geometry" />
        </mxCell>
        <mxCell id="jOmrKNcZ774Khs-bOahz-264" value="" style="group" parent="WIyWlLk6GJQsqaUBKTNV-1" vertex="1" connectable="0">
          <mxGeometry x="800" y="134" width="320" height="10" as="geometry" />
        </mxCell>
        <mxCell id="jOmrKNcZ774Khs-bOahz-265" value="" style="whiteSpace=wrap;html=1;aspect=fixed;" parent="jOmrKNcZ774Khs-bOahz-264" vertex="1">
          <mxGeometry width="10" height="10" as="geometry" />
        </mxCell>
        <mxCell id="jOmrKNcZ774Khs-bOahz-266" value="" style="whiteSpace=wrap;html=1;aspect=fixed;" parent="jOmrKNcZ774Khs-bOahz-264" vertex="1">
          <mxGeometry x="10" width="10" height="10" as="geometry" />
        </mxCell>
        <mxCell id="jOmrKNcZ774Khs-bOahz-267" value="" style="whiteSpace=wrap;html=1;aspect=fixed;" parent="jOmrKNcZ774Khs-bOahz-264" vertex="1">
          <mxGeometry x="20" width="10" height="10" as="geometry" />
        </mxCell>
        <mxCell id="jOmrKNcZ774Khs-bOahz-268" value="" style="whiteSpace=wrap;html=1;aspect=fixed;" parent="jOmrKNcZ774Khs-bOahz-264" vertex="1">
          <mxGeometry x="30" width="10" height="10" as="geometry" />
        </mxCell>
        <mxCell id="jOmrKNcZ774Khs-bOahz-269" value="" style="whiteSpace=wrap;html=1;aspect=fixed;" parent="jOmrKNcZ774Khs-bOahz-264" vertex="1">
          <mxGeometry x="40" width="10" height="10" as="geometry" />
        </mxCell>
        <mxCell id="jOmrKNcZ774Khs-bOahz-270" value="" style="whiteSpace=wrap;html=1;aspect=fixed;" parent="jOmrKNcZ774Khs-bOahz-264" vertex="1">
          <mxGeometry x="50" width="10" height="10" as="geometry" />
        </mxCell>
        <mxCell id="jOmrKNcZ774Khs-bOahz-271" value="" style="whiteSpace=wrap;html=1;aspect=fixed;" parent="jOmrKNcZ774Khs-bOahz-264" vertex="1">
          <mxGeometry x="60" width="10" height="10" as="geometry" />
        </mxCell>
        <mxCell id="jOmrKNcZ774Khs-bOahz-272" value="" style="whiteSpace=wrap;html=1;aspect=fixed;" parent="jOmrKNcZ774Khs-bOahz-264" vertex="1">
          <mxGeometry x="70" width="10" height="10" as="geometry" />
        </mxCell>
        <mxCell id="jOmrKNcZ774Khs-bOahz-273" value="" style="whiteSpace=wrap;html=1;aspect=fixed;" parent="jOmrKNcZ774Khs-bOahz-264" vertex="1">
          <mxGeometry x="80" width="10" height="10" as="geometry" />
        </mxCell>
        <mxCell id="jOmrKNcZ774Khs-bOahz-274" value="" style="whiteSpace=wrap;html=1;aspect=fixed;" parent="jOmrKNcZ774Khs-bOahz-264" vertex="1">
          <mxGeometry x="90" width="10" height="10" as="geometry" />
        </mxCell>
        <mxCell id="jOmrKNcZ774Khs-bOahz-275" value="" style="whiteSpace=wrap;html=1;aspect=fixed;" parent="jOmrKNcZ774Khs-bOahz-264" vertex="1">
          <mxGeometry x="100" width="10" height="10" as="geometry" />
        </mxCell>
        <mxCell id="jOmrKNcZ774Khs-bOahz-276" value="" style="whiteSpace=wrap;html=1;aspect=fixed;" parent="jOmrKNcZ774Khs-bOahz-264" vertex="1">
          <mxGeometry x="110" width="10" height="10" as="geometry" />
        </mxCell>
        <mxCell id="jOmrKNcZ774Khs-bOahz-277" value="" style="whiteSpace=wrap;html=1;aspect=fixed;" parent="jOmrKNcZ774Khs-bOahz-264" vertex="1">
          <mxGeometry x="120" width="10" height="10" as="geometry" />
        </mxCell>
        <mxCell id="jOmrKNcZ774Khs-bOahz-278" value="" style="whiteSpace=wrap;html=1;aspect=fixed;" parent="jOmrKNcZ774Khs-bOahz-264" vertex="1">
          <mxGeometry x="130" width="10" height="10" as="geometry" />
        </mxCell>
        <mxCell id="jOmrKNcZ774Khs-bOahz-279" value="" style="whiteSpace=wrap;html=1;aspect=fixed;" parent="jOmrKNcZ774Khs-bOahz-264" vertex="1">
          <mxGeometry x="140" width="10" height="10" as="geometry" />
        </mxCell>
        <mxCell id="jOmrKNcZ774Khs-bOahz-280" value="" style="whiteSpace=wrap;html=1;aspect=fixed;" parent="jOmrKNcZ774Khs-bOahz-264" vertex="1">
          <mxGeometry x="150" width="10" height="10" as="geometry" />
        </mxCell>
        <mxCell id="jOmrKNcZ774Khs-bOahz-281" value="" style="whiteSpace=wrap;html=1;aspect=fixed;" parent="jOmrKNcZ774Khs-bOahz-264" vertex="1">
          <mxGeometry x="160" width="10" height="10" as="geometry" />
        </mxCell>
        <mxCell id="jOmrKNcZ774Khs-bOahz-282" value="" style="whiteSpace=wrap;html=1;aspect=fixed;" parent="jOmrKNcZ774Khs-bOahz-264" vertex="1">
          <mxGeometry x="170" width="10" height="10" as="geometry" />
        </mxCell>
        <mxCell id="jOmrKNcZ774Khs-bOahz-283" value="" style="whiteSpace=wrap;html=1;aspect=fixed;" parent="jOmrKNcZ774Khs-bOahz-264" vertex="1">
          <mxGeometry x="180" width="10" height="10" as="geometry" />
        </mxCell>
        <mxCell id="jOmrKNcZ774Khs-bOahz-284" value="" style="whiteSpace=wrap;html=1;aspect=fixed;" parent="jOmrKNcZ774Khs-bOahz-264" vertex="1">
          <mxGeometry x="190" width="10" height="10" as="geometry" />
        </mxCell>
        <mxCell id="jOmrKNcZ774Khs-bOahz-285" value="" style="whiteSpace=wrap;html=1;aspect=fixed;" parent="jOmrKNcZ774Khs-bOahz-264" vertex="1">
          <mxGeometry x="200" width="10" height="10" as="geometry" />
        </mxCell>
        <mxCell id="jOmrKNcZ774Khs-bOahz-286" value="" style="whiteSpace=wrap;html=1;aspect=fixed;" parent="jOmrKNcZ774Khs-bOahz-264" vertex="1">
          <mxGeometry x="210" width="10" height="10" as="geometry" />
        </mxCell>
        <mxCell id="jOmrKNcZ774Khs-bOahz-287" value="" style="whiteSpace=wrap;html=1;aspect=fixed;" parent="jOmrKNcZ774Khs-bOahz-264" vertex="1">
          <mxGeometry x="220" width="10" height="10" as="geometry" />
        </mxCell>
        <mxCell id="jOmrKNcZ774Khs-bOahz-288" value="" style="whiteSpace=wrap;html=1;aspect=fixed;" parent="jOmrKNcZ774Khs-bOahz-264" vertex="1">
          <mxGeometry x="230" width="10" height="10" as="geometry" />
        </mxCell>
        <mxCell id="jOmrKNcZ774Khs-bOahz-289" value="" style="whiteSpace=wrap;html=1;aspect=fixed;" parent="jOmrKNcZ774Khs-bOahz-264" vertex="1">
          <mxGeometry x="240" width="10" height="10" as="geometry" />
        </mxCell>
        <mxCell id="jOmrKNcZ774Khs-bOahz-290" value="" style="whiteSpace=wrap;html=1;aspect=fixed;fillColor=#66FFB3;" parent="jOmrKNcZ774Khs-bOahz-264" vertex="1">
          <mxGeometry x="250" width="10" height="10" as="geometry" />
        </mxCell>
        <mxCell id="jOmrKNcZ774Khs-bOahz-291" value="" style="whiteSpace=wrap;html=1;aspect=fixed;fillColor=#66FFB3;" parent="jOmrKNcZ774Khs-bOahz-264" vertex="1">
          <mxGeometry x="260" width="10" height="10" as="geometry" />
        </mxCell>
        <mxCell id="jOmrKNcZ774Khs-bOahz-292" value="" style="whiteSpace=wrap;html=1;aspect=fixed;fillColor=#66FFB3;" parent="jOmrKNcZ774Khs-bOahz-264" vertex="1">
          <mxGeometry x="270" width="10" height="10" as="geometry" />
        </mxCell>
        <mxCell id="jOmrKNcZ774Khs-bOahz-293" value="" style="whiteSpace=wrap;html=1;aspect=fixed;fillColor=#FFCE9F;" parent="jOmrKNcZ774Khs-bOahz-264" vertex="1">
          <mxGeometry x="280" width="10" height="10" as="geometry" />
        </mxCell>
        <mxCell id="jOmrKNcZ774Khs-bOahz-294" value="" style="whiteSpace=wrap;html=1;aspect=fixed;fillColor=#FFCE9F;" parent="jOmrKNcZ774Khs-bOahz-264" vertex="1">
          <mxGeometry x="290" width="10" height="10" as="geometry" />
        </mxCell>
        <mxCell id="jOmrKNcZ774Khs-bOahz-295" value="" style="whiteSpace=wrap;html=1;aspect=fixed;fillColor=#FFCE9F;" parent="jOmrKNcZ774Khs-bOahz-264" vertex="1">
          <mxGeometry x="300" width="10" height="10" as="geometry" />
        </mxCell>
        <mxCell id="jOmrKNcZ774Khs-bOahz-296" value="" style="whiteSpace=wrap;html=1;aspect=fixed;fillColor=#FFCE9F;" parent="jOmrKNcZ774Khs-bOahz-264" vertex="1">
          <mxGeometry x="310" width="10" height="10" as="geometry" />
        </mxCell>
        <mxCell id="jOmrKNcZ774Khs-bOahz-297" value="" style="group" parent="WIyWlLk6GJQsqaUBKTNV-1" vertex="1" connectable="0">
          <mxGeometry x="801" y="166" width="320" height="10" as="geometry" />
        </mxCell>
        <mxCell id="jOmrKNcZ774Khs-bOahz-298" value="" style="whiteSpace=wrap;html=1;aspect=fixed;" parent="jOmrKNcZ774Khs-bOahz-297" vertex="1">
          <mxGeometry width="10" height="10" as="geometry" />
        </mxCell>
        <mxCell id="jOmrKNcZ774Khs-bOahz-299" value="" style="whiteSpace=wrap;html=1;aspect=fixed;" parent="jOmrKNcZ774Khs-bOahz-297" vertex="1">
          <mxGeometry x="10" width="10" height="10" as="geometry" />
        </mxCell>
        <mxCell id="jOmrKNcZ774Khs-bOahz-300" value="" style="whiteSpace=wrap;html=1;aspect=fixed;" parent="jOmrKNcZ774Khs-bOahz-297" vertex="1">
          <mxGeometry x="20" width="10" height="10" as="geometry" />
        </mxCell>
        <mxCell id="jOmrKNcZ774Khs-bOahz-301" value="" style="whiteSpace=wrap;html=1;aspect=fixed;" parent="jOmrKNcZ774Khs-bOahz-297" vertex="1">
          <mxGeometry x="30" width="10" height="10" as="geometry" />
        </mxCell>
        <mxCell id="jOmrKNcZ774Khs-bOahz-302" value="" style="whiteSpace=wrap;html=1;aspect=fixed;" parent="jOmrKNcZ774Khs-bOahz-297" vertex="1">
          <mxGeometry x="40" width="10" height="10" as="geometry" />
        </mxCell>
        <mxCell id="jOmrKNcZ774Khs-bOahz-303" value="" style="whiteSpace=wrap;html=1;aspect=fixed;" parent="jOmrKNcZ774Khs-bOahz-297" vertex="1">
          <mxGeometry x="50" width="10" height="10" as="geometry" />
        </mxCell>
        <mxCell id="jOmrKNcZ774Khs-bOahz-304" value="" style="whiteSpace=wrap;html=1;aspect=fixed;" parent="jOmrKNcZ774Khs-bOahz-297" vertex="1">
          <mxGeometry x="60" width="10" height="10" as="geometry" />
        </mxCell>
        <mxCell id="jOmrKNcZ774Khs-bOahz-305" value="" style="whiteSpace=wrap;html=1;aspect=fixed;" parent="jOmrKNcZ774Khs-bOahz-297" vertex="1">
          <mxGeometry x="70" width="10" height="10" as="geometry" />
        </mxCell>
        <mxCell id="jOmrKNcZ774Khs-bOahz-306" value="" style="whiteSpace=wrap;html=1;aspect=fixed;" parent="jOmrKNcZ774Khs-bOahz-297" vertex="1">
          <mxGeometry x="80" width="10" height="10" as="geometry" />
        </mxCell>
        <mxCell id="jOmrKNcZ774Khs-bOahz-307" value="" style="whiteSpace=wrap;html=1;aspect=fixed;" parent="jOmrKNcZ774Khs-bOahz-297" vertex="1">
          <mxGeometry x="90" width="10" height="10" as="geometry" />
        </mxCell>
        <mxCell id="jOmrKNcZ774Khs-bOahz-308" value="" style="whiteSpace=wrap;html=1;aspect=fixed;" parent="jOmrKNcZ774Khs-bOahz-297" vertex="1">
          <mxGeometry x="100" width="10" height="10" as="geometry" />
        </mxCell>
        <mxCell id="jOmrKNcZ774Khs-bOahz-309" value="" style="whiteSpace=wrap;html=1;aspect=fixed;" parent="jOmrKNcZ774Khs-bOahz-297" vertex="1">
          <mxGeometry x="110" width="10" height="10" as="geometry" />
        </mxCell>
        <mxCell id="jOmrKNcZ774Khs-bOahz-310" value="" style="whiteSpace=wrap;html=1;aspect=fixed;" parent="jOmrKNcZ774Khs-bOahz-297" vertex="1">
          <mxGeometry x="120" width="10" height="10" as="geometry" />
        </mxCell>
        <mxCell id="jOmrKNcZ774Khs-bOahz-311" value="" style="whiteSpace=wrap;html=1;aspect=fixed;" parent="jOmrKNcZ774Khs-bOahz-297" vertex="1">
          <mxGeometry x="130" width="10" height="10" as="geometry" />
        </mxCell>
        <mxCell id="jOmrKNcZ774Khs-bOahz-312" value="" style="whiteSpace=wrap;html=1;aspect=fixed;" parent="jOmrKNcZ774Khs-bOahz-297" vertex="1">
          <mxGeometry x="140" width="10" height="10" as="geometry" />
        </mxCell>
        <mxCell id="jOmrKNcZ774Khs-bOahz-313" value="" style="whiteSpace=wrap;html=1;aspect=fixed;" parent="jOmrKNcZ774Khs-bOahz-297" vertex="1">
          <mxGeometry x="150" width="10" height="10" as="geometry" />
        </mxCell>
        <mxCell id="jOmrKNcZ774Khs-bOahz-314" value="" style="whiteSpace=wrap;html=1;aspect=fixed;" parent="jOmrKNcZ774Khs-bOahz-297" vertex="1">
          <mxGeometry x="160" width="10" height="10" as="geometry" />
        </mxCell>
        <mxCell id="jOmrKNcZ774Khs-bOahz-315" value="" style="whiteSpace=wrap;html=1;aspect=fixed;" parent="jOmrKNcZ774Khs-bOahz-297" vertex="1">
          <mxGeometry x="170" width="10" height="10" as="geometry" />
        </mxCell>
        <mxCell id="jOmrKNcZ774Khs-bOahz-316" value="" style="whiteSpace=wrap;html=1;aspect=fixed;" parent="jOmrKNcZ774Khs-bOahz-297" vertex="1">
          <mxGeometry x="180" width="10" height="10" as="geometry" />
        </mxCell>
        <mxCell id="jOmrKNcZ774Khs-bOahz-317" value="" style="whiteSpace=wrap;html=1;aspect=fixed;" parent="jOmrKNcZ774Khs-bOahz-297" vertex="1">
          <mxGeometry x="190" width="10" height="10" as="geometry" />
        </mxCell>
        <mxCell id="jOmrKNcZ774Khs-bOahz-318" value="" style="whiteSpace=wrap;html=1;aspect=fixed;" parent="jOmrKNcZ774Khs-bOahz-297" vertex="1">
          <mxGeometry x="200" width="10" height="10" as="geometry" />
        </mxCell>
        <mxCell id="jOmrKNcZ774Khs-bOahz-319" value="" style="whiteSpace=wrap;html=1;aspect=fixed;" parent="jOmrKNcZ774Khs-bOahz-297" vertex="1">
          <mxGeometry x="210" width="10" height="10" as="geometry" />
        </mxCell>
        <mxCell id="jOmrKNcZ774Khs-bOahz-320" value="" style="whiteSpace=wrap;html=1;aspect=fixed;fillColor=#FFFF99;" parent="jOmrKNcZ774Khs-bOahz-297" vertex="1">
          <mxGeometry x="220" width="10" height="10" as="geometry" />
        </mxCell>
        <mxCell id="jOmrKNcZ774Khs-bOahz-321" value="" style="whiteSpace=wrap;html=1;aspect=fixed;fillColor=#FFFF99;" parent="jOmrKNcZ774Khs-bOahz-297" vertex="1">
          <mxGeometry x="230" width="10" height="10" as="geometry" />
        </mxCell>
        <mxCell id="jOmrKNcZ774Khs-bOahz-322" value="" style="whiteSpace=wrap;html=1;aspect=fixed;fillColor=#FFFF99;" parent="jOmrKNcZ774Khs-bOahz-297" vertex="1">
          <mxGeometry x="240" width="10" height="10" as="geometry" />
        </mxCell>
        <mxCell id="jOmrKNcZ774Khs-bOahz-323" value="" style="whiteSpace=wrap;html=1;aspect=fixed;fillColor=#66FFB3;" parent="jOmrKNcZ774Khs-bOahz-297" vertex="1">
          <mxGeometry x="250" width="10" height="10" as="geometry" />
        </mxCell>
        <mxCell id="jOmrKNcZ774Khs-bOahz-324" value="" style="whiteSpace=wrap;html=1;aspect=fixed;fillColor=#66FFB3;" parent="jOmrKNcZ774Khs-bOahz-297" vertex="1">
          <mxGeometry x="260" width="10" height="10" as="geometry" />
        </mxCell>
        <mxCell id="jOmrKNcZ774Khs-bOahz-325" value="" style="whiteSpace=wrap;html=1;aspect=fixed;fillColor=#66FFB3;" parent="jOmrKNcZ774Khs-bOahz-297" vertex="1">
          <mxGeometry x="270" width="10" height="10" as="geometry" />
        </mxCell>
        <mxCell id="jOmrKNcZ774Khs-bOahz-326" value="" style="whiteSpace=wrap;html=1;aspect=fixed;fillColor=#FFCE9F;" parent="jOmrKNcZ774Khs-bOahz-297" vertex="1">
          <mxGeometry x="280" width="10" height="10" as="geometry" />
        </mxCell>
        <mxCell id="jOmrKNcZ774Khs-bOahz-327" value="" style="whiteSpace=wrap;html=1;aspect=fixed;fillColor=#FFCE9F;" parent="jOmrKNcZ774Khs-bOahz-297" vertex="1">
          <mxGeometry x="290" width="10" height="10" as="geometry" />
        </mxCell>
        <mxCell id="jOmrKNcZ774Khs-bOahz-328" value="" style="whiteSpace=wrap;html=1;aspect=fixed;fillColor=#FFCE9F;" parent="jOmrKNcZ774Khs-bOahz-297" vertex="1">
          <mxGeometry x="300" width="10" height="10" as="geometry" />
        </mxCell>
        <mxCell id="jOmrKNcZ774Khs-bOahz-329" value="" style="whiteSpace=wrap;html=1;aspect=fixed;fillColor=#FFCE9F;" parent="jOmrKNcZ774Khs-bOahz-297" vertex="1">
          <mxGeometry x="310" width="10" height="10" as="geometry" />
        </mxCell>
        <mxCell id="jOmrKNcZ774Khs-bOahz-330" value="" style="group" parent="WIyWlLk6GJQsqaUBKTNV-1" vertex="1" connectable="0">
          <mxGeometry x="800" y="200" width="320" height="10" as="geometry" />
        </mxCell>
        <mxCell id="jOmrKNcZ774Khs-bOahz-331" value="" style="whiteSpace=wrap;html=1;aspect=fixed;" parent="jOmrKNcZ774Khs-bOahz-330" vertex="1">
          <mxGeometry width="10" height="10" as="geometry" />
        </mxCell>
        <mxCell id="jOmrKNcZ774Khs-bOahz-332" value="" style="whiteSpace=wrap;html=1;aspect=fixed;" parent="jOmrKNcZ774Khs-bOahz-330" vertex="1">
          <mxGeometry x="10" width="10" height="10" as="geometry" />
        </mxCell>
        <mxCell id="jOmrKNcZ774Khs-bOahz-333" value="" style="whiteSpace=wrap;html=1;aspect=fixed;" parent="jOmrKNcZ774Khs-bOahz-330" vertex="1">
          <mxGeometry x="20" width="10" height="10" as="geometry" />
        </mxCell>
        <mxCell id="jOmrKNcZ774Khs-bOahz-334" value="" style="whiteSpace=wrap;html=1;aspect=fixed;" parent="jOmrKNcZ774Khs-bOahz-330" vertex="1">
          <mxGeometry x="30" width="10" height="10" as="geometry" />
        </mxCell>
        <mxCell id="jOmrKNcZ774Khs-bOahz-335" value="" style="whiteSpace=wrap;html=1;aspect=fixed;" parent="jOmrKNcZ774Khs-bOahz-330" vertex="1">
          <mxGeometry x="40" width="10" height="10" as="geometry" />
        </mxCell>
        <mxCell id="jOmrKNcZ774Khs-bOahz-336" value="" style="whiteSpace=wrap;html=1;aspect=fixed;" parent="jOmrKNcZ774Khs-bOahz-330" vertex="1">
          <mxGeometry x="50" width="10" height="10" as="geometry" />
        </mxCell>
        <mxCell id="jOmrKNcZ774Khs-bOahz-337" value="" style="whiteSpace=wrap;html=1;aspect=fixed;" parent="jOmrKNcZ774Khs-bOahz-330" vertex="1">
          <mxGeometry x="60" width="10" height="10" as="geometry" />
        </mxCell>
        <mxCell id="jOmrKNcZ774Khs-bOahz-338" value="" style="whiteSpace=wrap;html=1;aspect=fixed;" parent="jOmrKNcZ774Khs-bOahz-330" vertex="1">
          <mxGeometry x="70" width="10" height="10" as="geometry" />
        </mxCell>
        <mxCell id="jOmrKNcZ774Khs-bOahz-339" value="" style="whiteSpace=wrap;html=1;aspect=fixed;" parent="jOmrKNcZ774Khs-bOahz-330" vertex="1">
          <mxGeometry x="80" width="10" height="10" as="geometry" />
        </mxCell>
        <mxCell id="jOmrKNcZ774Khs-bOahz-340" value="" style="whiteSpace=wrap;html=1;aspect=fixed;" parent="jOmrKNcZ774Khs-bOahz-330" vertex="1">
          <mxGeometry x="90" width="10" height="10" as="geometry" />
        </mxCell>
        <mxCell id="jOmrKNcZ774Khs-bOahz-341" value="" style="whiteSpace=wrap;html=1;aspect=fixed;" parent="jOmrKNcZ774Khs-bOahz-330" vertex="1">
          <mxGeometry x="100" width="10" height="10" as="geometry" />
        </mxCell>
        <mxCell id="jOmrKNcZ774Khs-bOahz-342" value="" style="whiteSpace=wrap;html=1;aspect=fixed;" parent="jOmrKNcZ774Khs-bOahz-330" vertex="1">
          <mxGeometry x="110" width="10" height="10" as="geometry" />
        </mxCell>
        <mxCell id="jOmrKNcZ774Khs-bOahz-343" value="" style="whiteSpace=wrap;html=1;aspect=fixed;" parent="jOmrKNcZ774Khs-bOahz-330" vertex="1">
          <mxGeometry x="120" width="10" height="10" as="geometry" />
        </mxCell>
        <mxCell id="jOmrKNcZ774Khs-bOahz-344" value="" style="whiteSpace=wrap;html=1;aspect=fixed;" parent="jOmrKNcZ774Khs-bOahz-330" vertex="1">
          <mxGeometry x="130" width="10" height="10" as="geometry" />
        </mxCell>
        <mxCell id="jOmrKNcZ774Khs-bOahz-345" value="" style="whiteSpace=wrap;html=1;aspect=fixed;" parent="jOmrKNcZ774Khs-bOahz-330" vertex="1">
          <mxGeometry x="140" width="10" height="10" as="geometry" />
        </mxCell>
        <mxCell id="jOmrKNcZ774Khs-bOahz-346" value="" style="whiteSpace=wrap;html=1;aspect=fixed;" parent="jOmrKNcZ774Khs-bOahz-330" vertex="1">
          <mxGeometry x="150" width="10" height="10" as="geometry" />
        </mxCell>
        <mxCell id="jOmrKNcZ774Khs-bOahz-347" value="" style="whiteSpace=wrap;html=1;aspect=fixed;" parent="jOmrKNcZ774Khs-bOahz-330" vertex="1">
          <mxGeometry x="160" width="10" height="10" as="geometry" />
        </mxCell>
        <mxCell id="jOmrKNcZ774Khs-bOahz-348" value="" style="whiteSpace=wrap;html=1;aspect=fixed;" parent="jOmrKNcZ774Khs-bOahz-330" vertex="1">
          <mxGeometry x="170" width="10" height="10" as="geometry" />
        </mxCell>
        <mxCell id="jOmrKNcZ774Khs-bOahz-349" value="" style="whiteSpace=wrap;html=1;aspect=fixed;" parent="jOmrKNcZ774Khs-bOahz-330" vertex="1">
          <mxGeometry x="180" width="10" height="10" as="geometry" />
        </mxCell>
        <mxCell id="jOmrKNcZ774Khs-bOahz-350" value="" style="whiteSpace=wrap;html=1;aspect=fixed;" parent="jOmrKNcZ774Khs-bOahz-330" vertex="1">
          <mxGeometry x="190" width="10" height="10" as="geometry" />
        </mxCell>
        <mxCell id="jOmrKNcZ774Khs-bOahz-351" value="" style="whiteSpace=wrap;html=1;aspect=fixed;" parent="jOmrKNcZ774Khs-bOahz-330" vertex="1">
          <mxGeometry x="200" width="10" height="10" as="geometry" />
        </mxCell>
        <mxCell id="jOmrKNcZ774Khs-bOahz-352" value="" style="whiteSpace=wrap;html=1;aspect=fixed;" parent="jOmrKNcZ774Khs-bOahz-330" vertex="1">
          <mxGeometry x="210" width="10" height="10" as="geometry" />
        </mxCell>
        <mxCell id="jOmrKNcZ774Khs-bOahz-353" value="" style="whiteSpace=wrap;html=1;aspect=fixed;" parent="jOmrKNcZ774Khs-bOahz-330" vertex="1">
          <mxGeometry x="220" width="10" height="10" as="geometry" />
        </mxCell>
        <mxCell id="jOmrKNcZ774Khs-bOahz-354" value="" style="whiteSpace=wrap;html=1;aspect=fixed;" parent="jOmrKNcZ774Khs-bOahz-330" vertex="1">
          <mxGeometry x="230" width="10" height="10" as="geometry" />
        </mxCell>
        <mxCell id="jOmrKNcZ774Khs-bOahz-355" value="" style="whiteSpace=wrap;html=1;aspect=fixed;" parent="jOmrKNcZ774Khs-bOahz-330" vertex="1">
          <mxGeometry x="240" width="10" height="10" as="geometry" />
        </mxCell>
        <mxCell id="jOmrKNcZ774Khs-bOahz-356" value="" style="whiteSpace=wrap;html=1;aspect=fixed;" parent="jOmrKNcZ774Khs-bOahz-330" vertex="1">
          <mxGeometry x="250" width="10" height="10" as="geometry" />
        </mxCell>
        <mxCell id="jOmrKNcZ774Khs-bOahz-357" value="" style="whiteSpace=wrap;html=1;aspect=fixed;" parent="jOmrKNcZ774Khs-bOahz-330" vertex="1">
          <mxGeometry x="260" width="10" height="10" as="geometry" />
        </mxCell>
        <mxCell id="jOmrKNcZ774Khs-bOahz-358" value="" style="whiteSpace=wrap;html=1;aspect=fixed;" parent="jOmrKNcZ774Khs-bOahz-330" vertex="1">
          <mxGeometry x="270" width="10" height="10" as="geometry" />
        </mxCell>
        <mxCell id="jOmrKNcZ774Khs-bOahz-359" value="" style="whiteSpace=wrap;html=1;aspect=fixed;fillColor=#FFCE9F;" parent="jOmrKNcZ774Khs-bOahz-330" vertex="1">
          <mxGeometry x="280" width="10" height="10" as="geometry" />
        </mxCell>
        <mxCell id="jOmrKNcZ774Khs-bOahz-360" value="" style="whiteSpace=wrap;html=1;aspect=fixed;fillColor=#FFCE9F;" parent="jOmrKNcZ774Khs-bOahz-330" vertex="1">
          <mxGeometry x="290" width="10" height="10" as="geometry" />
        </mxCell>
        <mxCell id="jOmrKNcZ774Khs-bOahz-361" value="" style="whiteSpace=wrap;html=1;aspect=fixed;fillColor=#FFCE9F;" parent="jOmrKNcZ774Khs-bOahz-330" vertex="1">
          <mxGeometry x="300" width="10" height="10" as="geometry" />
        </mxCell>
        <mxCell id="jOmrKNcZ774Khs-bOahz-362" value="" style="whiteSpace=wrap;html=1;aspect=fixed;fillColor=#FFCE9F;" parent="jOmrKNcZ774Khs-bOahz-330" vertex="1">
          <mxGeometry x="310" width="10" height="10" as="geometry" />
        </mxCell>
        <mxCell id="jOmrKNcZ774Khs-bOahz-363" value="" style="group" parent="WIyWlLk6GJQsqaUBKTNV-1" vertex="1" connectable="0">
          <mxGeometry x="800" y="230" width="320" height="10" as="geometry" />
        </mxCell>
        <mxCell id="jOmrKNcZ774Khs-bOahz-364" value="" style="whiteSpace=wrap;html=1;aspect=fixed;" parent="jOmrKNcZ774Khs-bOahz-363" vertex="1">
          <mxGeometry width="10" height="10" as="geometry" />
        </mxCell>
        <mxCell id="jOmrKNcZ774Khs-bOahz-365" value="" style="whiteSpace=wrap;html=1;aspect=fixed;" parent="jOmrKNcZ774Khs-bOahz-363" vertex="1">
          <mxGeometry x="10" width="10" height="10" as="geometry" />
        </mxCell>
        <mxCell id="jOmrKNcZ774Khs-bOahz-366" value="" style="whiteSpace=wrap;html=1;aspect=fixed;" parent="jOmrKNcZ774Khs-bOahz-363" vertex="1">
          <mxGeometry x="20" width="10" height="10" as="geometry" />
        </mxCell>
        <mxCell id="jOmrKNcZ774Khs-bOahz-367" value="" style="whiteSpace=wrap;html=1;aspect=fixed;" parent="jOmrKNcZ774Khs-bOahz-363" vertex="1">
          <mxGeometry x="30" width="10" height="10" as="geometry" />
        </mxCell>
        <mxCell id="jOmrKNcZ774Khs-bOahz-368" value="" style="whiteSpace=wrap;html=1;aspect=fixed;" parent="jOmrKNcZ774Khs-bOahz-363" vertex="1">
          <mxGeometry x="40" width="10" height="10" as="geometry" />
        </mxCell>
        <mxCell id="jOmrKNcZ774Khs-bOahz-369" value="" style="whiteSpace=wrap;html=1;aspect=fixed;" parent="jOmrKNcZ774Khs-bOahz-363" vertex="1">
          <mxGeometry x="50" width="10" height="10" as="geometry" />
        </mxCell>
        <mxCell id="jOmrKNcZ774Khs-bOahz-370" value="" style="whiteSpace=wrap;html=1;aspect=fixed;" parent="jOmrKNcZ774Khs-bOahz-363" vertex="1">
          <mxGeometry x="60" width="10" height="10" as="geometry" />
        </mxCell>
        <mxCell id="jOmrKNcZ774Khs-bOahz-371" value="" style="whiteSpace=wrap;html=1;aspect=fixed;" parent="jOmrKNcZ774Khs-bOahz-363" vertex="1">
          <mxGeometry x="70" width="10" height="10" as="geometry" />
        </mxCell>
        <mxCell id="jOmrKNcZ774Khs-bOahz-372" value="" style="whiteSpace=wrap;html=1;aspect=fixed;" parent="jOmrKNcZ774Khs-bOahz-363" vertex="1">
          <mxGeometry x="80" width="10" height="10" as="geometry" />
        </mxCell>
        <mxCell id="jOmrKNcZ774Khs-bOahz-373" value="" style="whiteSpace=wrap;html=1;aspect=fixed;" parent="jOmrKNcZ774Khs-bOahz-363" vertex="1">
          <mxGeometry x="90" width="10" height="10" as="geometry" />
        </mxCell>
        <mxCell id="jOmrKNcZ774Khs-bOahz-374" value="" style="whiteSpace=wrap;html=1;aspect=fixed;" parent="jOmrKNcZ774Khs-bOahz-363" vertex="1">
          <mxGeometry x="100" width="10" height="10" as="geometry" />
        </mxCell>
        <mxCell id="jOmrKNcZ774Khs-bOahz-375" value="" style="whiteSpace=wrap;html=1;aspect=fixed;" parent="jOmrKNcZ774Khs-bOahz-363" vertex="1">
          <mxGeometry x="110" width="10" height="10" as="geometry" />
        </mxCell>
        <mxCell id="jOmrKNcZ774Khs-bOahz-376" value="" style="whiteSpace=wrap;html=1;aspect=fixed;" parent="jOmrKNcZ774Khs-bOahz-363" vertex="1">
          <mxGeometry x="120" width="10" height="10" as="geometry" />
        </mxCell>
        <mxCell id="jOmrKNcZ774Khs-bOahz-377" value="" style="whiteSpace=wrap;html=1;aspect=fixed;" parent="jOmrKNcZ774Khs-bOahz-363" vertex="1">
          <mxGeometry x="130" width="10" height="10" as="geometry" />
        </mxCell>
        <mxCell id="jOmrKNcZ774Khs-bOahz-378" value="" style="whiteSpace=wrap;html=1;aspect=fixed;" parent="jOmrKNcZ774Khs-bOahz-363" vertex="1">
          <mxGeometry x="140" width="10" height="10" as="geometry" />
        </mxCell>
        <mxCell id="jOmrKNcZ774Khs-bOahz-379" value="" style="whiteSpace=wrap;html=1;aspect=fixed;" parent="jOmrKNcZ774Khs-bOahz-363" vertex="1">
          <mxGeometry x="150" width="10" height="10" as="geometry" />
        </mxCell>
        <mxCell id="jOmrKNcZ774Khs-bOahz-380" value="" style="whiteSpace=wrap;html=1;aspect=fixed;" parent="jOmrKNcZ774Khs-bOahz-363" vertex="1">
          <mxGeometry x="160" width="10" height="10" as="geometry" />
        </mxCell>
        <mxCell id="jOmrKNcZ774Khs-bOahz-381" value="" style="whiteSpace=wrap;html=1;aspect=fixed;" parent="jOmrKNcZ774Khs-bOahz-363" vertex="1">
          <mxGeometry x="170" width="10" height="10" as="geometry" />
        </mxCell>
        <mxCell id="jOmrKNcZ774Khs-bOahz-382" value="" style="whiteSpace=wrap;html=1;aspect=fixed;" parent="jOmrKNcZ774Khs-bOahz-363" vertex="1">
          <mxGeometry x="180" width="10" height="10" as="geometry" />
        </mxCell>
        <mxCell id="jOmrKNcZ774Khs-bOahz-383" value="" style="whiteSpace=wrap;html=1;aspect=fixed;" parent="jOmrKNcZ774Khs-bOahz-363" vertex="1">
          <mxGeometry x="190" width="10" height="10" as="geometry" />
        </mxCell>
        <mxCell id="jOmrKNcZ774Khs-bOahz-384" value="" style="whiteSpace=wrap;html=1;aspect=fixed;" parent="jOmrKNcZ774Khs-bOahz-363" vertex="1">
          <mxGeometry x="200" width="10" height="10" as="geometry" />
        </mxCell>
        <mxCell id="jOmrKNcZ774Khs-bOahz-385" value="" style="whiteSpace=wrap;html=1;aspect=fixed;" parent="jOmrKNcZ774Khs-bOahz-363" vertex="1">
          <mxGeometry x="210" width="10" height="10" as="geometry" />
        </mxCell>
        <mxCell id="jOmrKNcZ774Khs-bOahz-386" value="" style="whiteSpace=wrap;html=1;aspect=fixed;" parent="jOmrKNcZ774Khs-bOahz-363" vertex="1">
          <mxGeometry x="220" width="10" height="10" as="geometry" />
        </mxCell>
        <mxCell id="jOmrKNcZ774Khs-bOahz-387" value="" style="whiteSpace=wrap;html=1;aspect=fixed;" parent="jOmrKNcZ774Khs-bOahz-363" vertex="1">
          <mxGeometry x="230" width="10" height="10" as="geometry" />
        </mxCell>
        <mxCell id="jOmrKNcZ774Khs-bOahz-388" value="" style="whiteSpace=wrap;html=1;aspect=fixed;" parent="jOmrKNcZ774Khs-bOahz-363" vertex="1">
          <mxGeometry x="240" width="10" height="10" as="geometry" />
        </mxCell>
        <mxCell id="jOmrKNcZ774Khs-bOahz-389" value="" style="whiteSpace=wrap;html=1;aspect=fixed;" parent="jOmrKNcZ774Khs-bOahz-363" vertex="1">
          <mxGeometry x="250" width="10" height="10" as="geometry" />
        </mxCell>
        <mxCell id="jOmrKNcZ774Khs-bOahz-390" value="" style="whiteSpace=wrap;html=1;aspect=fixed;" parent="jOmrKNcZ774Khs-bOahz-363" vertex="1">
          <mxGeometry x="260" width="10" height="10" as="geometry" />
        </mxCell>
        <mxCell id="jOmrKNcZ774Khs-bOahz-391" value="" style="whiteSpace=wrap;html=1;aspect=fixed;fillColor=#FFFF99;" parent="jOmrKNcZ774Khs-bOahz-363" vertex="1">
          <mxGeometry x="270" width="10" height="10" as="geometry" />
        </mxCell>
        <mxCell id="jOmrKNcZ774Khs-bOahz-392" value="" style="whiteSpace=wrap;html=1;aspect=fixed;fillColor=#FFCE9F;" parent="jOmrKNcZ774Khs-bOahz-363" vertex="1">
          <mxGeometry x="280" width="10" height="10" as="geometry" />
        </mxCell>
        <mxCell id="jOmrKNcZ774Khs-bOahz-393" value="" style="whiteSpace=wrap;html=1;aspect=fixed;fillColor=#FFCE9F;" parent="jOmrKNcZ774Khs-bOahz-363" vertex="1">
          <mxGeometry x="290" width="10" height="10" as="geometry" />
        </mxCell>
        <mxCell id="jOmrKNcZ774Khs-bOahz-394" value="" style="whiteSpace=wrap;html=1;aspect=fixed;fillColor=#FFCE9F;" parent="jOmrKNcZ774Khs-bOahz-363" vertex="1">
          <mxGeometry x="300" width="10" height="10" as="geometry" />
        </mxCell>
        <mxCell id="jOmrKNcZ774Khs-bOahz-395" value="" style="whiteSpace=wrap;html=1;aspect=fixed;fillColor=#FFCE9F;" parent="jOmrKNcZ774Khs-bOahz-363" vertex="1">
          <mxGeometry x="310" width="10" height="10" as="geometry" />
        </mxCell>
        <mxCell id="jOmrKNcZ774Khs-bOahz-396" value="Registro Estado Pokemon Atacante (32 bits)" style="swimlane;fontStyle=2;align=center;verticalAlign=top;childLayout=stackLayout;horizontal=1;startSize=26;horizontalStack=0;resizeParent=1;resizeLast=0;collapsible=1;marginBottom=0;rounded=0;shadow=0;strokeWidth=1;" parent="WIyWlLk6GJQsqaUBKTNV-1" vertex="1">
          <mxGeometry x="40" y="400" width="320" height="240" as="geometry">
            <mxRectangle x="230" y="140" width="160" height="26" as="alternateBounds" />
          </mxGeometry>
        </mxCell>
        <mxCell id="jOmrKNcZ774Khs-bOahz-397" value="Bit 31-0: Direccion base del pokemon (para CMD 1)." style="text;align=left;verticalAlign=top;spacingLeft=4;spacingRight=4;overflow=hidden;rotatable=0;points=[[0,0.5],[1,0.5]];portConstraint=eastwest;labelBackgroundColor=#F19C99;" parent="jOmrKNcZ774Khs-bOahz-396" vertex="1">
          <mxGeometry y="26" width="320" height="26" as="geometry" />
        </mxCell>
        <mxCell id="6VLWFbxtcUZiDCJLcJdM-142" value="Bit 31-0: Direccion base del movimiento (para CMD 6)." style="text;align=left;verticalAlign=top;spacingLeft=4;spacingRight=4;overflow=hidden;rotatable=0;points=[[0,0.5],[1,0.5]];portConstraint=eastwest;labelBackgroundColor=#F19C99;" vertex="1" parent="jOmrKNcZ774Khs-bOahz-396">
          <mxGeometry y="52" width="320" height="26" as="geometry" />
        </mxCell>
        <mxCell id="jOmrKNcZ774Khs-bOahz-404" value="" style="group" parent="WIyWlLk6GJQsqaUBKTNV-1" vertex="1" connectable="0">
          <mxGeometry x="40" y="380" width="320" height="10" as="geometry" />
        </mxCell>
        <mxCell id="jOmrKNcZ774Khs-bOahz-405" value="" style="whiteSpace=wrap;html=1;aspect=fixed;" parent="jOmrKNcZ774Khs-bOahz-404" vertex="1">
          <mxGeometry width="10" height="10" as="geometry" />
        </mxCell>
        <mxCell id="jOmrKNcZ774Khs-bOahz-406" value="" style="whiteSpace=wrap;html=1;aspect=fixed;" parent="jOmrKNcZ774Khs-bOahz-404" vertex="1">
          <mxGeometry x="10" width="10" height="10" as="geometry" />
        </mxCell>
        <mxCell id="jOmrKNcZ774Khs-bOahz-407" value="" style="whiteSpace=wrap;html=1;aspect=fixed;" parent="jOmrKNcZ774Khs-bOahz-404" vertex="1">
          <mxGeometry x="20" width="10" height="10" as="geometry" />
        </mxCell>
        <mxCell id="jOmrKNcZ774Khs-bOahz-408" value="" style="whiteSpace=wrap;html=1;aspect=fixed;" parent="jOmrKNcZ774Khs-bOahz-404" vertex="1">
          <mxGeometry x="30" width="10" height="10" as="geometry" />
        </mxCell>
        <mxCell id="jOmrKNcZ774Khs-bOahz-409" value="" style="whiteSpace=wrap;html=1;aspect=fixed;" parent="jOmrKNcZ774Khs-bOahz-404" vertex="1">
          <mxGeometry x="40" width="10" height="10" as="geometry" />
        </mxCell>
        <mxCell id="jOmrKNcZ774Khs-bOahz-410" value="" style="whiteSpace=wrap;html=1;aspect=fixed;" parent="jOmrKNcZ774Khs-bOahz-404" vertex="1">
          <mxGeometry x="50" width="10" height="10" as="geometry" />
        </mxCell>
        <mxCell id="jOmrKNcZ774Khs-bOahz-411" value="" style="whiteSpace=wrap;html=1;aspect=fixed;" parent="jOmrKNcZ774Khs-bOahz-404" vertex="1">
          <mxGeometry x="60" width="10" height="10" as="geometry" />
        </mxCell>
        <mxCell id="jOmrKNcZ774Khs-bOahz-412" value="" style="whiteSpace=wrap;html=1;aspect=fixed;" parent="jOmrKNcZ774Khs-bOahz-404" vertex="1">
          <mxGeometry x="70" width="10" height="10" as="geometry" />
        </mxCell>
        <mxCell id="jOmrKNcZ774Khs-bOahz-413" value="" style="whiteSpace=wrap;html=1;aspect=fixed;" parent="jOmrKNcZ774Khs-bOahz-404" vertex="1">
          <mxGeometry x="80" width="10" height="10" as="geometry" />
        </mxCell>
        <mxCell id="jOmrKNcZ774Khs-bOahz-414" value="" style="whiteSpace=wrap;html=1;aspect=fixed;" parent="jOmrKNcZ774Khs-bOahz-404" vertex="1">
          <mxGeometry x="90" width="10" height="10" as="geometry" />
        </mxCell>
        <mxCell id="jOmrKNcZ774Khs-bOahz-415" value="" style="whiteSpace=wrap;html=1;aspect=fixed;" parent="jOmrKNcZ774Khs-bOahz-404" vertex="1">
          <mxGeometry x="100" width="10" height="10" as="geometry" />
        </mxCell>
        <mxCell id="jOmrKNcZ774Khs-bOahz-416" value="" style="whiteSpace=wrap;html=1;aspect=fixed;" parent="jOmrKNcZ774Khs-bOahz-404" vertex="1">
          <mxGeometry x="110" width="10" height="10" as="geometry" />
        </mxCell>
        <mxCell id="jOmrKNcZ774Khs-bOahz-417" value="" style="whiteSpace=wrap;html=1;aspect=fixed;" parent="jOmrKNcZ774Khs-bOahz-404" vertex="1">
          <mxGeometry x="120" width="10" height="10" as="geometry" />
        </mxCell>
        <mxCell id="jOmrKNcZ774Khs-bOahz-418" value="" style="whiteSpace=wrap;html=1;aspect=fixed;" parent="jOmrKNcZ774Khs-bOahz-404" vertex="1">
          <mxGeometry x="130" width="10" height="10" as="geometry" />
        </mxCell>
        <mxCell id="jOmrKNcZ774Khs-bOahz-419" value="" style="whiteSpace=wrap;html=1;aspect=fixed;" parent="jOmrKNcZ774Khs-bOahz-404" vertex="1">
          <mxGeometry x="140" width="10" height="10" as="geometry" />
        </mxCell>
        <mxCell id="jOmrKNcZ774Khs-bOahz-420" value="" style="whiteSpace=wrap;html=1;aspect=fixed;" parent="jOmrKNcZ774Khs-bOahz-404" vertex="1">
          <mxGeometry x="150" width="10" height="10" as="geometry" />
        </mxCell>
        <mxCell id="jOmrKNcZ774Khs-bOahz-421" value="" style="whiteSpace=wrap;html=1;aspect=fixed;" parent="jOmrKNcZ774Khs-bOahz-404" vertex="1">
          <mxGeometry x="160" width="10" height="10" as="geometry" />
        </mxCell>
        <mxCell id="jOmrKNcZ774Khs-bOahz-422" value="" style="whiteSpace=wrap;html=1;aspect=fixed;" parent="jOmrKNcZ774Khs-bOahz-404" vertex="1">
          <mxGeometry x="170" width="10" height="10" as="geometry" />
        </mxCell>
        <mxCell id="jOmrKNcZ774Khs-bOahz-423" value="" style="whiteSpace=wrap;html=1;aspect=fixed;" parent="jOmrKNcZ774Khs-bOahz-404" vertex="1">
          <mxGeometry x="180" width="10" height="10" as="geometry" />
        </mxCell>
        <mxCell id="jOmrKNcZ774Khs-bOahz-424" value="" style="whiteSpace=wrap;html=1;aspect=fixed;" parent="jOmrKNcZ774Khs-bOahz-404" vertex="1">
          <mxGeometry x="190" width="10" height="10" as="geometry" />
        </mxCell>
        <mxCell id="jOmrKNcZ774Khs-bOahz-425" value="" style="whiteSpace=wrap;html=1;aspect=fixed;" parent="jOmrKNcZ774Khs-bOahz-404" vertex="1">
          <mxGeometry x="200" width="10" height="10" as="geometry" />
        </mxCell>
        <mxCell id="jOmrKNcZ774Khs-bOahz-426" value="" style="whiteSpace=wrap;html=1;aspect=fixed;" parent="jOmrKNcZ774Khs-bOahz-404" vertex="1">
          <mxGeometry x="210" width="10" height="10" as="geometry" />
        </mxCell>
        <mxCell id="jOmrKNcZ774Khs-bOahz-427" value="" style="whiteSpace=wrap;html=1;aspect=fixed;" parent="jOmrKNcZ774Khs-bOahz-404" vertex="1">
          <mxGeometry x="220" width="10" height="10" as="geometry" />
        </mxCell>
        <mxCell id="jOmrKNcZ774Khs-bOahz-428" value="" style="whiteSpace=wrap;html=1;aspect=fixed;" parent="jOmrKNcZ774Khs-bOahz-404" vertex="1">
          <mxGeometry x="230" width="10" height="10" as="geometry" />
        </mxCell>
        <mxCell id="jOmrKNcZ774Khs-bOahz-429" value="" style="whiteSpace=wrap;html=1;aspect=fixed;" parent="jOmrKNcZ774Khs-bOahz-404" vertex="1">
          <mxGeometry x="240" width="10" height="10" as="geometry" />
        </mxCell>
        <mxCell id="jOmrKNcZ774Khs-bOahz-430" value="" style="whiteSpace=wrap;html=1;aspect=fixed;" parent="jOmrKNcZ774Khs-bOahz-404" vertex="1">
          <mxGeometry x="250" width="10" height="10" as="geometry" />
        </mxCell>
        <mxCell id="jOmrKNcZ774Khs-bOahz-431" value="" style="whiteSpace=wrap;html=1;aspect=fixed;" parent="jOmrKNcZ774Khs-bOahz-404" vertex="1">
          <mxGeometry x="260" width="10" height="10" as="geometry" />
        </mxCell>
        <mxCell id="jOmrKNcZ774Khs-bOahz-432" value="" style="whiteSpace=wrap;html=1;aspect=fixed;" parent="jOmrKNcZ774Khs-bOahz-404" vertex="1">
          <mxGeometry x="270" width="10" height="10" as="geometry" />
        </mxCell>
        <mxCell id="jOmrKNcZ774Khs-bOahz-433" value="" style="whiteSpace=wrap;html=1;aspect=fixed;fillColor=none;" parent="jOmrKNcZ774Khs-bOahz-404" vertex="1">
          <mxGeometry x="280" width="10" height="10" as="geometry" />
        </mxCell>
        <mxCell id="jOmrKNcZ774Khs-bOahz-434" value="" style="whiteSpace=wrap;html=1;aspect=fixed;fillColor=none;" parent="jOmrKNcZ774Khs-bOahz-404" vertex="1">
          <mxGeometry x="290" width="10" height="10" as="geometry" />
        </mxCell>
        <mxCell id="jOmrKNcZ774Khs-bOahz-435" value="" style="whiteSpace=wrap;html=1;aspect=fixed;fillColor=none;" parent="jOmrKNcZ774Khs-bOahz-404" vertex="1">
          <mxGeometry x="300" width="10" height="10" as="geometry" />
        </mxCell>
        <mxCell id="jOmrKNcZ774Khs-bOahz-436" value="" style="whiteSpace=wrap;html=1;aspect=fixed;fillColor=none;" parent="jOmrKNcZ774Khs-bOahz-404" vertex="1">
          <mxGeometry x="310" width="10" height="10" as="geometry" />
        </mxCell>
        <mxCell id="jOmrKNcZ774Khs-bOahz-470" value="" style="group" parent="WIyWlLk6GJQsqaUBKTNV-1" vertex="1" connectable="0">
          <mxGeometry x="-290" y="434" width="320" height="10" as="geometry" />
        </mxCell>
        <mxCell id="jOmrKNcZ774Khs-bOahz-471" value="" style="whiteSpace=wrap;html=1;aspect=fixed;fillColor=#F19C99;" parent="jOmrKNcZ774Khs-bOahz-470" vertex="1">
          <mxGeometry width="10" height="10" as="geometry" />
        </mxCell>
        <mxCell id="jOmrKNcZ774Khs-bOahz-472" value="" style="whiteSpace=wrap;html=1;aspect=fixed;fillColor=#F19C99;" parent="jOmrKNcZ774Khs-bOahz-470" vertex="1">
          <mxGeometry x="10" width="10" height="10" as="geometry" />
        </mxCell>
        <mxCell id="jOmrKNcZ774Khs-bOahz-473" value="" style="whiteSpace=wrap;html=1;aspect=fixed;fillColor=#F19C99;" parent="jOmrKNcZ774Khs-bOahz-470" vertex="1">
          <mxGeometry x="20" width="10" height="10" as="geometry" />
        </mxCell>
        <mxCell id="jOmrKNcZ774Khs-bOahz-474" value="" style="whiteSpace=wrap;html=1;aspect=fixed;fillColor=#F19C99;" parent="jOmrKNcZ774Khs-bOahz-470" vertex="1">
          <mxGeometry x="30" width="10" height="10" as="geometry" />
        </mxCell>
        <mxCell id="jOmrKNcZ774Khs-bOahz-475" value="" style="whiteSpace=wrap;html=1;aspect=fixed;fillColor=#F19C99;" parent="jOmrKNcZ774Khs-bOahz-470" vertex="1">
          <mxGeometry x="40" width="10" height="10" as="geometry" />
        </mxCell>
        <mxCell id="jOmrKNcZ774Khs-bOahz-476" value="" style="whiteSpace=wrap;html=1;aspect=fixed;fillColor=#F19C99;" parent="jOmrKNcZ774Khs-bOahz-470" vertex="1">
          <mxGeometry x="50" width="10" height="10" as="geometry" />
        </mxCell>
        <mxCell id="jOmrKNcZ774Khs-bOahz-477" value="" style="whiteSpace=wrap;html=1;aspect=fixed;fillColor=#F19C99;" parent="jOmrKNcZ774Khs-bOahz-470" vertex="1">
          <mxGeometry x="60" width="10" height="10" as="geometry" />
        </mxCell>
        <mxCell id="jOmrKNcZ774Khs-bOahz-478" value="" style="whiteSpace=wrap;html=1;aspect=fixed;fillColor=#F19C99;" parent="jOmrKNcZ774Khs-bOahz-470" vertex="1">
          <mxGeometry x="70" width="10" height="10" as="geometry" />
        </mxCell>
        <mxCell id="jOmrKNcZ774Khs-bOahz-479" value="" style="whiteSpace=wrap;html=1;aspect=fixed;fillColor=#F19C99;" parent="jOmrKNcZ774Khs-bOahz-470" vertex="1">
          <mxGeometry x="80" width="10" height="10" as="geometry" />
        </mxCell>
        <mxCell id="jOmrKNcZ774Khs-bOahz-480" value="" style="whiteSpace=wrap;html=1;aspect=fixed;fillColor=#F19C99;" parent="jOmrKNcZ774Khs-bOahz-470" vertex="1">
          <mxGeometry x="90" width="10" height="10" as="geometry" />
        </mxCell>
        <mxCell id="jOmrKNcZ774Khs-bOahz-481" value="" style="whiteSpace=wrap;html=1;aspect=fixed;fillColor=#F19C99;" parent="jOmrKNcZ774Khs-bOahz-470" vertex="1">
          <mxGeometry x="100" width="10" height="10" as="geometry" />
        </mxCell>
        <mxCell id="jOmrKNcZ774Khs-bOahz-482" value="" style="whiteSpace=wrap;html=1;aspect=fixed;fillColor=#F19C99;" parent="jOmrKNcZ774Khs-bOahz-470" vertex="1">
          <mxGeometry x="110" width="10" height="10" as="geometry" />
        </mxCell>
        <mxCell id="jOmrKNcZ774Khs-bOahz-483" value="" style="whiteSpace=wrap;html=1;aspect=fixed;fillColor=#F19C99;" parent="jOmrKNcZ774Khs-bOahz-470" vertex="1">
          <mxGeometry x="120" width="10" height="10" as="geometry" />
        </mxCell>
        <mxCell id="jOmrKNcZ774Khs-bOahz-484" value="" style="whiteSpace=wrap;html=1;aspect=fixed;fillColor=#F19C99;" parent="jOmrKNcZ774Khs-bOahz-470" vertex="1">
          <mxGeometry x="130" width="10" height="10" as="geometry" />
        </mxCell>
        <mxCell id="jOmrKNcZ774Khs-bOahz-485" value="" style="whiteSpace=wrap;html=1;aspect=fixed;fillColor=#F19C99;" parent="jOmrKNcZ774Khs-bOahz-470" vertex="1">
          <mxGeometry x="140" width="10" height="10" as="geometry" />
        </mxCell>
        <mxCell id="jOmrKNcZ774Khs-bOahz-486" value="" style="whiteSpace=wrap;html=1;aspect=fixed;fillColor=#F19C99;" parent="jOmrKNcZ774Khs-bOahz-470" vertex="1">
          <mxGeometry x="150" width="10" height="10" as="geometry" />
        </mxCell>
        <mxCell id="jOmrKNcZ774Khs-bOahz-487" value="" style="whiteSpace=wrap;html=1;aspect=fixed;fillColor=#F19C99;" parent="jOmrKNcZ774Khs-bOahz-470" vertex="1">
          <mxGeometry x="160" width="10" height="10" as="geometry" />
        </mxCell>
        <mxCell id="jOmrKNcZ774Khs-bOahz-488" value="" style="whiteSpace=wrap;html=1;aspect=fixed;fillColor=#F19C99;" parent="jOmrKNcZ774Khs-bOahz-470" vertex="1">
          <mxGeometry x="170" width="10" height="10" as="geometry" />
        </mxCell>
        <mxCell id="jOmrKNcZ774Khs-bOahz-489" value="" style="whiteSpace=wrap;html=1;aspect=fixed;fillColor=#F19C99;" parent="jOmrKNcZ774Khs-bOahz-470" vertex="1">
          <mxGeometry x="180" width="10" height="10" as="geometry" />
        </mxCell>
        <mxCell id="jOmrKNcZ774Khs-bOahz-490" value="" style="whiteSpace=wrap;html=1;aspect=fixed;fillColor=#F19C99;" parent="jOmrKNcZ774Khs-bOahz-470" vertex="1">
          <mxGeometry x="190" width="10" height="10" as="geometry" />
        </mxCell>
        <mxCell id="jOmrKNcZ774Khs-bOahz-491" value="" style="whiteSpace=wrap;html=1;aspect=fixed;fillColor=#F19C99;" parent="jOmrKNcZ774Khs-bOahz-470" vertex="1">
          <mxGeometry x="200" width="10" height="10" as="geometry" />
        </mxCell>
        <mxCell id="jOmrKNcZ774Khs-bOahz-492" value="" style="whiteSpace=wrap;html=1;aspect=fixed;fillColor=#F19C99;" parent="jOmrKNcZ774Khs-bOahz-470" vertex="1">
          <mxGeometry x="210" width="10" height="10" as="geometry" />
        </mxCell>
        <mxCell id="jOmrKNcZ774Khs-bOahz-493" value="" style="whiteSpace=wrap;html=1;aspect=fixed;fillColor=#F19C99;" parent="jOmrKNcZ774Khs-bOahz-470" vertex="1">
          <mxGeometry x="220" width="10" height="10" as="geometry" />
        </mxCell>
        <mxCell id="jOmrKNcZ774Khs-bOahz-494" value="" style="whiteSpace=wrap;html=1;aspect=fixed;fillColor=#F19C99;" parent="jOmrKNcZ774Khs-bOahz-470" vertex="1">
          <mxGeometry x="230" width="10" height="10" as="geometry" />
        </mxCell>
        <mxCell id="jOmrKNcZ774Khs-bOahz-495" value="" style="whiteSpace=wrap;html=1;aspect=fixed;fillColor=#F19C99;" parent="jOmrKNcZ774Khs-bOahz-470" vertex="1">
          <mxGeometry x="240" width="10" height="10" as="geometry" />
        </mxCell>
        <mxCell id="jOmrKNcZ774Khs-bOahz-496" value="" style="whiteSpace=wrap;html=1;aspect=fixed;fillColor=#F19C99;" parent="jOmrKNcZ774Khs-bOahz-470" vertex="1">
          <mxGeometry x="250" width="10" height="10" as="geometry" />
        </mxCell>
        <mxCell id="jOmrKNcZ774Khs-bOahz-497" value="" style="whiteSpace=wrap;html=1;aspect=fixed;fillColor=#F19C99;" parent="jOmrKNcZ774Khs-bOahz-470" vertex="1">
          <mxGeometry x="260" width="10" height="10" as="geometry" />
        </mxCell>
        <mxCell id="jOmrKNcZ774Khs-bOahz-498" value="" style="whiteSpace=wrap;html=1;aspect=fixed;fillColor=#F19C99;" parent="jOmrKNcZ774Khs-bOahz-470" vertex="1">
          <mxGeometry x="270" width="10" height="10" as="geometry" />
        </mxCell>
        <mxCell id="jOmrKNcZ774Khs-bOahz-499" value="" style="whiteSpace=wrap;html=1;aspect=fixed;fillColor=#F19C99;" parent="jOmrKNcZ774Khs-bOahz-470" vertex="1">
          <mxGeometry x="280" width="10" height="10" as="geometry" />
        </mxCell>
        <mxCell id="jOmrKNcZ774Khs-bOahz-500" value="" style="whiteSpace=wrap;html=1;aspect=fixed;fillColor=#F19C99;" parent="jOmrKNcZ774Khs-bOahz-470" vertex="1">
          <mxGeometry x="290" width="10" height="10" as="geometry" />
        </mxCell>
        <mxCell id="jOmrKNcZ774Khs-bOahz-501" value="" style="whiteSpace=wrap;html=1;aspect=fixed;fillColor=#F19C99;" parent="jOmrKNcZ774Khs-bOahz-470" vertex="1">
          <mxGeometry x="300" width="10" height="10" as="geometry" />
        </mxCell>
        <mxCell id="jOmrKNcZ774Khs-bOahz-502" value="" style="whiteSpace=wrap;html=1;aspect=fixed;fillColor=#F19C99;" parent="jOmrKNcZ774Khs-bOahz-470" vertex="1">
          <mxGeometry x="310" width="10" height="10" as="geometry" />
        </mxCell>
        <mxCell id="jOmrKNcZ774Khs-bOahz-503" value="" style="group" parent="WIyWlLk6GJQsqaUBKTNV-1" vertex="1" connectable="0">
          <mxGeometry x="801" y="510" width="320" height="10" as="geometry" />
        </mxCell>
        <mxCell id="jOmrKNcZ774Khs-bOahz-504" value="" style="whiteSpace=wrap;html=1;aspect=fixed;" parent="jOmrKNcZ774Khs-bOahz-503" vertex="1">
          <mxGeometry width="10" height="10" as="geometry" />
        </mxCell>
        <mxCell id="jOmrKNcZ774Khs-bOahz-505" value="" style="whiteSpace=wrap;html=1;aspect=fixed;" parent="jOmrKNcZ774Khs-bOahz-503" vertex="1">
          <mxGeometry x="10" width="10" height="10" as="geometry" />
        </mxCell>
        <mxCell id="jOmrKNcZ774Khs-bOahz-506" value="" style="whiteSpace=wrap;html=1;aspect=fixed;" parent="jOmrKNcZ774Khs-bOahz-503" vertex="1">
          <mxGeometry x="20" width="10" height="10" as="geometry" />
        </mxCell>
        <mxCell id="jOmrKNcZ774Khs-bOahz-507" value="" style="whiteSpace=wrap;html=1;aspect=fixed;" parent="jOmrKNcZ774Khs-bOahz-503" vertex="1">
          <mxGeometry x="30" width="10" height="10" as="geometry" />
        </mxCell>
        <mxCell id="jOmrKNcZ774Khs-bOahz-508" value="" style="whiteSpace=wrap;html=1;aspect=fixed;" parent="jOmrKNcZ774Khs-bOahz-503" vertex="1">
          <mxGeometry x="40" width="10" height="10" as="geometry" />
        </mxCell>
        <mxCell id="jOmrKNcZ774Khs-bOahz-509" value="" style="whiteSpace=wrap;html=1;aspect=fixed;" parent="jOmrKNcZ774Khs-bOahz-503" vertex="1">
          <mxGeometry x="50" width="10" height="10" as="geometry" />
        </mxCell>
        <mxCell id="jOmrKNcZ774Khs-bOahz-510" value="" style="whiteSpace=wrap;html=1;aspect=fixed;" parent="jOmrKNcZ774Khs-bOahz-503" vertex="1">
          <mxGeometry x="60" width="10" height="10" as="geometry" />
        </mxCell>
        <mxCell id="jOmrKNcZ774Khs-bOahz-511" value="" style="whiteSpace=wrap;html=1;aspect=fixed;" parent="jOmrKNcZ774Khs-bOahz-503" vertex="1">
          <mxGeometry x="70" width="10" height="10" as="geometry" />
        </mxCell>
        <mxCell id="jOmrKNcZ774Khs-bOahz-512" value="" style="whiteSpace=wrap;html=1;aspect=fixed;" parent="jOmrKNcZ774Khs-bOahz-503" vertex="1">
          <mxGeometry x="80" width="10" height="10" as="geometry" />
        </mxCell>
        <mxCell id="jOmrKNcZ774Khs-bOahz-513" value="" style="whiteSpace=wrap;html=1;aspect=fixed;" parent="jOmrKNcZ774Khs-bOahz-503" vertex="1">
          <mxGeometry x="90" width="10" height="10" as="geometry" />
        </mxCell>
        <mxCell id="jOmrKNcZ774Khs-bOahz-514" value="" style="whiteSpace=wrap;html=1;aspect=fixed;" parent="jOmrKNcZ774Khs-bOahz-503" vertex="1">
          <mxGeometry x="100" width="10" height="10" as="geometry" />
        </mxCell>
        <mxCell id="jOmrKNcZ774Khs-bOahz-515" value="" style="whiteSpace=wrap;html=1;aspect=fixed;" parent="jOmrKNcZ774Khs-bOahz-503" vertex="1">
          <mxGeometry x="110" width="10" height="10" as="geometry" />
        </mxCell>
        <mxCell id="jOmrKNcZ774Khs-bOahz-516" value="" style="whiteSpace=wrap;html=1;aspect=fixed;" parent="jOmrKNcZ774Khs-bOahz-503" vertex="1">
          <mxGeometry x="120" width="10" height="10" as="geometry" />
        </mxCell>
        <mxCell id="jOmrKNcZ774Khs-bOahz-517" value="" style="whiteSpace=wrap;html=1;aspect=fixed;" parent="jOmrKNcZ774Khs-bOahz-503" vertex="1">
          <mxGeometry x="130" width="10" height="10" as="geometry" />
        </mxCell>
        <mxCell id="jOmrKNcZ774Khs-bOahz-518" value="" style="whiteSpace=wrap;html=1;aspect=fixed;" parent="jOmrKNcZ774Khs-bOahz-503" vertex="1">
          <mxGeometry x="140" width="10" height="10" as="geometry" />
        </mxCell>
        <mxCell id="jOmrKNcZ774Khs-bOahz-519" value="" style="whiteSpace=wrap;html=1;aspect=fixed;" parent="jOmrKNcZ774Khs-bOahz-503" vertex="1">
          <mxGeometry x="150" width="10" height="10" as="geometry" />
        </mxCell>
        <mxCell id="jOmrKNcZ774Khs-bOahz-520" value="" style="whiteSpace=wrap;html=1;aspect=fixed;" parent="jOmrKNcZ774Khs-bOahz-503" vertex="1">
          <mxGeometry x="160" width="10" height="10" as="geometry" />
        </mxCell>
        <mxCell id="jOmrKNcZ774Khs-bOahz-521" value="" style="whiteSpace=wrap;html=1;aspect=fixed;" parent="jOmrKNcZ774Khs-bOahz-503" vertex="1">
          <mxGeometry x="170" width="10" height="10" as="geometry" />
        </mxCell>
        <mxCell id="jOmrKNcZ774Khs-bOahz-522" value="" style="whiteSpace=wrap;html=1;aspect=fixed;" parent="jOmrKNcZ774Khs-bOahz-503" vertex="1">
          <mxGeometry x="180" width="10" height="10" as="geometry" />
        </mxCell>
        <mxCell id="jOmrKNcZ774Khs-bOahz-523" value="" style="whiteSpace=wrap;html=1;aspect=fixed;" parent="jOmrKNcZ774Khs-bOahz-503" vertex="1">
          <mxGeometry x="190" width="10" height="10" as="geometry" />
        </mxCell>
        <mxCell id="jOmrKNcZ774Khs-bOahz-524" value="" style="whiteSpace=wrap;html=1;aspect=fixed;" parent="jOmrKNcZ774Khs-bOahz-503" vertex="1">
          <mxGeometry x="200" width="10" height="10" as="geometry" />
        </mxCell>
        <mxCell id="jOmrKNcZ774Khs-bOahz-525" value="" style="whiteSpace=wrap;html=1;aspect=fixed;" parent="jOmrKNcZ774Khs-bOahz-503" vertex="1">
          <mxGeometry x="210" width="10" height="10" as="geometry" />
        </mxCell>
        <mxCell id="jOmrKNcZ774Khs-bOahz-526" value="" style="whiteSpace=wrap;html=1;aspect=fixed;" parent="jOmrKNcZ774Khs-bOahz-503" vertex="1">
          <mxGeometry x="220" width="10" height="10" as="geometry" />
        </mxCell>
        <mxCell id="jOmrKNcZ774Khs-bOahz-527" value="" style="whiteSpace=wrap;html=1;aspect=fixed;" parent="jOmrKNcZ774Khs-bOahz-503" vertex="1">
          <mxGeometry x="230" width="10" height="10" as="geometry" />
        </mxCell>
        <mxCell id="jOmrKNcZ774Khs-bOahz-528" value="" style="whiteSpace=wrap;html=1;aspect=fixed;" parent="jOmrKNcZ774Khs-bOahz-503" vertex="1">
          <mxGeometry x="240" width="10" height="10" as="geometry" />
        </mxCell>
        <mxCell id="jOmrKNcZ774Khs-bOahz-529" value="" style="whiteSpace=wrap;html=1;aspect=fixed;fillColor=#FFCC99;" parent="jOmrKNcZ774Khs-bOahz-503" vertex="1">
          <mxGeometry x="250" width="10" height="10" as="geometry" />
        </mxCell>
        <mxCell id="jOmrKNcZ774Khs-bOahz-530" value="" style="whiteSpace=wrap;html=1;aspect=fixed;fillColor=#FFCC99;" parent="jOmrKNcZ774Khs-bOahz-503" vertex="1">
          <mxGeometry x="260" width="10" height="10" as="geometry" />
        </mxCell>
        <mxCell id="jOmrKNcZ774Khs-bOahz-531" value="" style="whiteSpace=wrap;html=1;aspect=fixed;fillColor=#FFCC99;" parent="jOmrKNcZ774Khs-bOahz-503" vertex="1">
          <mxGeometry x="270" width="10" height="10" as="geometry" />
        </mxCell>
        <mxCell id="jOmrKNcZ774Khs-bOahz-532" value="" style="whiteSpace=wrap;html=1;aspect=fixed;fillColor=#F19C99;" parent="jOmrKNcZ774Khs-bOahz-503" vertex="1">
          <mxGeometry x="280" width="10" height="10" as="geometry" />
        </mxCell>
        <mxCell id="jOmrKNcZ774Khs-bOahz-533" value="" style="whiteSpace=wrap;html=1;aspect=fixed;fillColor=#F19C99;" parent="jOmrKNcZ774Khs-bOahz-503" vertex="1">
          <mxGeometry x="290" width="10" height="10" as="geometry" />
        </mxCell>
        <mxCell id="jOmrKNcZ774Khs-bOahz-534" value="" style="whiteSpace=wrap;html=1;aspect=fixed;fillColor=#F19C99;" parent="jOmrKNcZ774Khs-bOahz-503" vertex="1">
          <mxGeometry x="300" width="10" height="10" as="geometry" />
        </mxCell>
        <mxCell id="jOmrKNcZ774Khs-bOahz-535" value="" style="whiteSpace=wrap;html=1;aspect=fixed;fillColor=#F19C99;" parent="jOmrKNcZ774Khs-bOahz-503" vertex="1">
          <mxGeometry x="310" width="10" height="10" as="geometry" />
        </mxCell>
        <mxCell id="jOmrKNcZ774Khs-bOahz-536" value="" style="group" parent="WIyWlLk6GJQsqaUBKTNV-1" vertex="1" connectable="0">
          <mxGeometry x="801" y="470" width="320" height="10" as="geometry" />
        </mxCell>
        <mxCell id="jOmrKNcZ774Khs-bOahz-537" value="" style="whiteSpace=wrap;html=1;aspect=fixed;" parent="jOmrKNcZ774Khs-bOahz-536" vertex="1">
          <mxGeometry width="10" height="10" as="geometry" />
        </mxCell>
        <mxCell id="jOmrKNcZ774Khs-bOahz-538" value="" style="whiteSpace=wrap;html=1;aspect=fixed;" parent="jOmrKNcZ774Khs-bOahz-536" vertex="1">
          <mxGeometry x="10" width="10" height="10" as="geometry" />
        </mxCell>
        <mxCell id="jOmrKNcZ774Khs-bOahz-539" value="" style="whiteSpace=wrap;html=1;aspect=fixed;" parent="jOmrKNcZ774Khs-bOahz-536" vertex="1">
          <mxGeometry x="20" width="10" height="10" as="geometry" />
        </mxCell>
        <mxCell id="jOmrKNcZ774Khs-bOahz-540" value="" style="whiteSpace=wrap;html=1;aspect=fixed;" parent="jOmrKNcZ774Khs-bOahz-536" vertex="1">
          <mxGeometry x="30" width="10" height="10" as="geometry" />
        </mxCell>
        <mxCell id="jOmrKNcZ774Khs-bOahz-541" value="" style="whiteSpace=wrap;html=1;aspect=fixed;" parent="jOmrKNcZ774Khs-bOahz-536" vertex="1">
          <mxGeometry x="40" width="10" height="10" as="geometry" />
        </mxCell>
        <mxCell id="jOmrKNcZ774Khs-bOahz-542" value="" style="whiteSpace=wrap;html=1;aspect=fixed;" parent="jOmrKNcZ774Khs-bOahz-536" vertex="1">
          <mxGeometry x="50" width="10" height="10" as="geometry" />
        </mxCell>
        <mxCell id="jOmrKNcZ774Khs-bOahz-543" value="" style="whiteSpace=wrap;html=1;aspect=fixed;" parent="jOmrKNcZ774Khs-bOahz-536" vertex="1">
          <mxGeometry x="60" width="10" height="10" as="geometry" />
        </mxCell>
        <mxCell id="jOmrKNcZ774Khs-bOahz-544" value="" style="whiteSpace=wrap;html=1;aspect=fixed;" parent="jOmrKNcZ774Khs-bOahz-536" vertex="1">
          <mxGeometry x="70" width="10" height="10" as="geometry" />
        </mxCell>
        <mxCell id="jOmrKNcZ774Khs-bOahz-545" value="" style="whiteSpace=wrap;html=1;aspect=fixed;fillColor=#FFFFFF;" parent="jOmrKNcZ774Khs-bOahz-536" vertex="1">
          <mxGeometry x="80" width="10" height="10" as="geometry" />
        </mxCell>
        <mxCell id="jOmrKNcZ774Khs-bOahz-546" value="" style="whiteSpace=wrap;html=1;aspect=fixed;fillColor=#FFFFFF;" parent="jOmrKNcZ774Khs-bOahz-536" vertex="1">
          <mxGeometry x="90" width="10" height="10" as="geometry" />
        </mxCell>
        <mxCell id="jOmrKNcZ774Khs-bOahz-547" value="" style="whiteSpace=wrap;html=1;aspect=fixed;fillColor=#FFFFFF;" parent="jOmrKNcZ774Khs-bOahz-536" vertex="1">
          <mxGeometry x="100" width="10" height="10" as="geometry" />
        </mxCell>
        <mxCell id="jOmrKNcZ774Khs-bOahz-548" value="" style="whiteSpace=wrap;html=1;aspect=fixed;fillColor=#FFFFFF;" parent="jOmrKNcZ774Khs-bOahz-536" vertex="1">
          <mxGeometry x="110" width="10" height="10" as="geometry" />
        </mxCell>
        <mxCell id="jOmrKNcZ774Khs-bOahz-549" value="" style="whiteSpace=wrap;html=1;aspect=fixed;fillColor=#FFFFFF;" parent="jOmrKNcZ774Khs-bOahz-536" vertex="1">
          <mxGeometry x="120" width="10" height="10" as="geometry" />
        </mxCell>
        <mxCell id="jOmrKNcZ774Khs-bOahz-550" value="" style="whiteSpace=wrap;html=1;aspect=fixed;fillColor=#FFFFFF;" parent="jOmrKNcZ774Khs-bOahz-536" vertex="1">
          <mxGeometry x="130" width="10" height="10" as="geometry" />
        </mxCell>
        <mxCell id="jOmrKNcZ774Khs-bOahz-551" value="" style="whiteSpace=wrap;html=1;aspect=fixed;fillColor=#FFFFFF;" parent="jOmrKNcZ774Khs-bOahz-536" vertex="1">
          <mxGeometry x="140" width="10" height="10" as="geometry" />
        </mxCell>
        <mxCell id="jOmrKNcZ774Khs-bOahz-552" value="" style="whiteSpace=wrap;html=1;aspect=fixed;fillColor=#FFFFFF;" parent="jOmrKNcZ774Khs-bOahz-536" vertex="1">
          <mxGeometry x="150" width="10" height="10" as="geometry" />
        </mxCell>
        <mxCell id="jOmrKNcZ774Khs-bOahz-553" value="" style="whiteSpace=wrap;html=1;aspect=fixed;fillColor=#FFFFFF;" parent="jOmrKNcZ774Khs-bOahz-536" vertex="1">
          <mxGeometry x="160" width="10" height="10" as="geometry" />
        </mxCell>
        <mxCell id="jOmrKNcZ774Khs-bOahz-554" value="" style="whiteSpace=wrap;html=1;aspect=fixed;fillColor=#FFFFFF;" parent="jOmrKNcZ774Khs-bOahz-536" vertex="1">
          <mxGeometry x="170" width="10" height="10" as="geometry" />
        </mxCell>
        <mxCell id="jOmrKNcZ774Khs-bOahz-555" value="" style="whiteSpace=wrap;html=1;aspect=fixed;fillColor=#FFFFFF;" parent="jOmrKNcZ774Khs-bOahz-536" vertex="1">
          <mxGeometry x="180" width="10" height="10" as="geometry" />
        </mxCell>
        <mxCell id="jOmrKNcZ774Khs-bOahz-556" value="" style="whiteSpace=wrap;html=1;aspect=fixed;fillColor=#FFFFFF;" parent="jOmrKNcZ774Khs-bOahz-536" vertex="1">
          <mxGeometry x="190" width="10" height="10" as="geometry" />
        </mxCell>
        <mxCell id="jOmrKNcZ774Khs-bOahz-557" value="" style="whiteSpace=wrap;html=1;aspect=fixed;fillColor=#FFFFFF;" parent="jOmrKNcZ774Khs-bOahz-536" vertex="1">
          <mxGeometry x="200" width="10" height="10" as="geometry" />
        </mxCell>
        <mxCell id="jOmrKNcZ774Khs-bOahz-558" value="" style="whiteSpace=wrap;html=1;aspect=fixed;fillColor=#FFFFFF;" parent="jOmrKNcZ774Khs-bOahz-536" vertex="1">
          <mxGeometry x="210" width="10" height="10" as="geometry" />
        </mxCell>
        <mxCell id="jOmrKNcZ774Khs-bOahz-559" value="" style="whiteSpace=wrap;html=1;aspect=fixed;fillColor=#FFFFFF;" parent="jOmrKNcZ774Khs-bOahz-536" vertex="1">
          <mxGeometry x="220" width="10" height="10" as="geometry" />
        </mxCell>
        <mxCell id="jOmrKNcZ774Khs-bOahz-560" value="" style="whiteSpace=wrap;html=1;aspect=fixed;fillColor=#FFFFFF;" parent="jOmrKNcZ774Khs-bOahz-536" vertex="1">
          <mxGeometry x="230" width="10" height="10" as="geometry" />
        </mxCell>
        <mxCell id="jOmrKNcZ774Khs-bOahz-561" value="" style="whiteSpace=wrap;html=1;aspect=fixed;fillColor=#FFFFFF;" parent="jOmrKNcZ774Khs-bOahz-536" vertex="1">
          <mxGeometry x="240" width="10" height="10" as="geometry" />
        </mxCell>
        <mxCell id="jOmrKNcZ774Khs-bOahz-562" value="" style="whiteSpace=wrap;html=1;aspect=fixed;fillColor=#FFFFFF;" parent="jOmrKNcZ774Khs-bOahz-536" vertex="1">
          <mxGeometry x="250" width="10" height="10" as="geometry" />
        </mxCell>
        <mxCell id="jOmrKNcZ774Khs-bOahz-563" value="" style="whiteSpace=wrap;html=1;aspect=fixed;fillColor=#FFFFFF;" parent="jOmrKNcZ774Khs-bOahz-536" vertex="1">
          <mxGeometry x="260" width="10" height="10" as="geometry" />
        </mxCell>
        <mxCell id="jOmrKNcZ774Khs-bOahz-564" value="" style="whiteSpace=wrap;html=1;aspect=fixed;fillColor=#FFFFFF;" parent="jOmrKNcZ774Khs-bOahz-536" vertex="1">
          <mxGeometry x="270" width="10" height="10" as="geometry" />
        </mxCell>
        <mxCell id="jOmrKNcZ774Khs-bOahz-565" value="" style="whiteSpace=wrap;html=1;aspect=fixed;fillColor=#F19C99;" parent="jOmrKNcZ774Khs-bOahz-536" vertex="1">
          <mxGeometry x="280" width="10" height="10" as="geometry" />
        </mxCell>
        <mxCell id="jOmrKNcZ774Khs-bOahz-566" value="" style="whiteSpace=wrap;html=1;aspect=fixed;fillColor=#F19C99;" parent="jOmrKNcZ774Khs-bOahz-536" vertex="1">
          <mxGeometry x="290" width="10" height="10" as="geometry" />
        </mxCell>
        <mxCell id="jOmrKNcZ774Khs-bOahz-567" value="" style="whiteSpace=wrap;html=1;aspect=fixed;fillColor=#F19C99;" parent="jOmrKNcZ774Khs-bOahz-536" vertex="1">
          <mxGeometry x="300" width="10" height="10" as="geometry" />
        </mxCell>
        <mxCell id="jOmrKNcZ774Khs-bOahz-568" value="" style="whiteSpace=wrap;html=1;aspect=fixed;fillColor=#F19C99;" parent="jOmrKNcZ774Khs-bOahz-536" vertex="1">
          <mxGeometry x="310" width="10" height="10" as="geometry" />
        </mxCell>
        <mxCell id="6VLWFbxtcUZiDCJLcJdM-2" value="" style="group;fillColor=#FFCC99;" vertex="1" connectable="0" parent="WIyWlLk6GJQsqaUBKTNV-1">
          <mxGeometry x="801" y="626" width="320" height="10" as="geometry" />
        </mxCell>
        <mxCell id="6VLWFbxtcUZiDCJLcJdM-3" value="" style="whiteSpace=wrap;html=1;aspect=fixed;" vertex="1" parent="6VLWFbxtcUZiDCJLcJdM-2">
          <mxGeometry width="10" height="10" as="geometry" />
        </mxCell>
        <mxCell id="6VLWFbxtcUZiDCJLcJdM-4" value="" style="whiteSpace=wrap;html=1;aspect=fixed;" vertex="1" parent="6VLWFbxtcUZiDCJLcJdM-2">
          <mxGeometry x="10" width="10" height="10" as="geometry" />
        </mxCell>
        <mxCell id="6VLWFbxtcUZiDCJLcJdM-5" value="" style="whiteSpace=wrap;html=1;aspect=fixed;" vertex="1" parent="6VLWFbxtcUZiDCJLcJdM-2">
          <mxGeometry x="20" width="10" height="10" as="geometry" />
        </mxCell>
        <mxCell id="6VLWFbxtcUZiDCJLcJdM-6" value="" style="whiteSpace=wrap;html=1;aspect=fixed;" vertex="1" parent="6VLWFbxtcUZiDCJLcJdM-2">
          <mxGeometry x="30" width="10" height="10" as="geometry" />
        </mxCell>
        <mxCell id="6VLWFbxtcUZiDCJLcJdM-7" value="" style="whiteSpace=wrap;html=1;aspect=fixed;" vertex="1" parent="6VLWFbxtcUZiDCJLcJdM-2">
          <mxGeometry x="40" width="10" height="10" as="geometry" />
        </mxCell>
        <mxCell id="6VLWFbxtcUZiDCJLcJdM-8" value="" style="whiteSpace=wrap;html=1;aspect=fixed;" vertex="1" parent="6VLWFbxtcUZiDCJLcJdM-2">
          <mxGeometry x="50" width="10" height="10" as="geometry" />
        </mxCell>
        <mxCell id="6VLWFbxtcUZiDCJLcJdM-9" value="" style="whiteSpace=wrap;html=1;aspect=fixed;" vertex="1" parent="6VLWFbxtcUZiDCJLcJdM-2">
          <mxGeometry x="60" width="10" height="10" as="geometry" />
        </mxCell>
        <mxCell id="6VLWFbxtcUZiDCJLcJdM-10" value="" style="whiteSpace=wrap;html=1;aspect=fixed;" vertex="1" parent="6VLWFbxtcUZiDCJLcJdM-2">
          <mxGeometry x="70" width="10" height="10" as="geometry" />
        </mxCell>
        <mxCell id="6VLWFbxtcUZiDCJLcJdM-11" value="" style="whiteSpace=wrap;html=1;aspect=fixed;" vertex="1" parent="6VLWFbxtcUZiDCJLcJdM-2">
          <mxGeometry x="80" width="10" height="10" as="geometry" />
        </mxCell>
        <mxCell id="6VLWFbxtcUZiDCJLcJdM-12" value="" style="whiteSpace=wrap;html=1;aspect=fixed;" vertex="1" parent="6VLWFbxtcUZiDCJLcJdM-2">
          <mxGeometry x="90" width="10" height="10" as="geometry" />
        </mxCell>
        <mxCell id="6VLWFbxtcUZiDCJLcJdM-13" value="" style="whiteSpace=wrap;html=1;aspect=fixed;" vertex="1" parent="6VLWFbxtcUZiDCJLcJdM-2">
          <mxGeometry x="100" width="10" height="10" as="geometry" />
        </mxCell>
        <mxCell id="6VLWFbxtcUZiDCJLcJdM-14" value="" style="whiteSpace=wrap;html=1;aspect=fixed;" vertex="1" parent="6VLWFbxtcUZiDCJLcJdM-2">
          <mxGeometry x="110" width="10" height="10" as="geometry" />
        </mxCell>
        <mxCell id="6VLWFbxtcUZiDCJLcJdM-15" value="" style="whiteSpace=wrap;html=1;aspect=fixed;" vertex="1" parent="6VLWFbxtcUZiDCJLcJdM-2">
          <mxGeometry x="120" width="10" height="10" as="geometry" />
        </mxCell>
        <mxCell id="6VLWFbxtcUZiDCJLcJdM-16" value="" style="whiteSpace=wrap;html=1;aspect=fixed;" vertex="1" parent="6VLWFbxtcUZiDCJLcJdM-2">
          <mxGeometry x="130" width="10" height="10" as="geometry" />
        </mxCell>
        <mxCell id="6VLWFbxtcUZiDCJLcJdM-17" value="" style="whiteSpace=wrap;html=1;aspect=fixed;" vertex="1" parent="6VLWFbxtcUZiDCJLcJdM-2">
          <mxGeometry x="140" width="10" height="10" as="geometry" />
        </mxCell>
        <mxCell id="6VLWFbxtcUZiDCJLcJdM-18" value="" style="whiteSpace=wrap;html=1;aspect=fixed;" vertex="1" parent="6VLWFbxtcUZiDCJLcJdM-2">
          <mxGeometry x="150" width="10" height="10" as="geometry" />
        </mxCell>
        <mxCell id="6VLWFbxtcUZiDCJLcJdM-19" value="" style="whiteSpace=wrap;html=1;aspect=fixed;" vertex="1" parent="6VLWFbxtcUZiDCJLcJdM-2">
          <mxGeometry x="160" width="10" height="10" as="geometry" />
        </mxCell>
        <mxCell id="6VLWFbxtcUZiDCJLcJdM-20" value="" style="whiteSpace=wrap;html=1;aspect=fixed;" vertex="1" parent="6VLWFbxtcUZiDCJLcJdM-2">
          <mxGeometry x="170" width="10" height="10" as="geometry" />
        </mxCell>
        <mxCell id="6VLWFbxtcUZiDCJLcJdM-21" value="" style="whiteSpace=wrap;html=1;aspect=fixed;" vertex="1" parent="6VLWFbxtcUZiDCJLcJdM-2">
          <mxGeometry x="180" width="10" height="10" as="geometry" />
        </mxCell>
        <mxCell id="6VLWFbxtcUZiDCJLcJdM-22" value="" style="whiteSpace=wrap;html=1;aspect=fixed;" vertex="1" parent="6VLWFbxtcUZiDCJLcJdM-2">
          <mxGeometry x="190" width="10" height="10" as="geometry" />
        </mxCell>
        <mxCell id="6VLWFbxtcUZiDCJLcJdM-23" value="" style="whiteSpace=wrap;html=1;aspect=fixed;fillColor=#FFCC99;" vertex="1" parent="6VLWFbxtcUZiDCJLcJdM-2">
          <mxGeometry x="200" width="10" height="10" as="geometry" />
        </mxCell>
        <mxCell id="6VLWFbxtcUZiDCJLcJdM-24" value="" style="whiteSpace=wrap;html=1;aspect=fixed;fillColor=#FFCC99;" vertex="1" parent="6VLWFbxtcUZiDCJLcJdM-2">
          <mxGeometry x="210" width="10" height="10" as="geometry" />
        </mxCell>
        <mxCell id="6VLWFbxtcUZiDCJLcJdM-25" value="" style="whiteSpace=wrap;html=1;aspect=fixed;fillColor=#FFCC99;" vertex="1" parent="6VLWFbxtcUZiDCJLcJdM-2">
          <mxGeometry x="220" width="10" height="10" as="geometry" />
        </mxCell>
        <mxCell id="6VLWFbxtcUZiDCJLcJdM-26" value="" style="whiteSpace=wrap;html=1;aspect=fixed;fillColor=#FFCC99;" vertex="1" parent="6VLWFbxtcUZiDCJLcJdM-2">
          <mxGeometry x="230" width="10" height="10" as="geometry" />
        </mxCell>
        <mxCell id="6VLWFbxtcUZiDCJLcJdM-27" value="" style="whiteSpace=wrap;html=1;aspect=fixed;fillColor=#FFCC99;" vertex="1" parent="6VLWFbxtcUZiDCJLcJdM-2">
          <mxGeometry x="240" width="10" height="10" as="geometry" />
        </mxCell>
        <mxCell id="6VLWFbxtcUZiDCJLcJdM-28" value="" style="whiteSpace=wrap;html=1;aspect=fixed;fillColor=#FFCC99;" vertex="1" parent="6VLWFbxtcUZiDCJLcJdM-2">
          <mxGeometry x="250" width="10" height="10" as="geometry" />
        </mxCell>
        <mxCell id="6VLWFbxtcUZiDCJLcJdM-29" value="" style="whiteSpace=wrap;html=1;aspect=fixed;fillColor=#FFCC99;" vertex="1" parent="6VLWFbxtcUZiDCJLcJdM-2">
          <mxGeometry x="260" width="10" height="10" as="geometry" />
        </mxCell>
        <mxCell id="6VLWFbxtcUZiDCJLcJdM-30" value="" style="whiteSpace=wrap;html=1;aspect=fixed;fillColor=#FFCC99;" vertex="1" parent="6VLWFbxtcUZiDCJLcJdM-2">
          <mxGeometry x="270" width="10" height="10" as="geometry" />
        </mxCell>
        <mxCell id="6VLWFbxtcUZiDCJLcJdM-31" value="" style="whiteSpace=wrap;html=1;aspect=fixed;fillColor=#F19C99;" vertex="1" parent="6VLWFbxtcUZiDCJLcJdM-2">
          <mxGeometry x="280" width="10" height="10" as="geometry" />
        </mxCell>
        <mxCell id="6VLWFbxtcUZiDCJLcJdM-32" value="" style="whiteSpace=wrap;html=1;aspect=fixed;fillColor=#F19C99;" vertex="1" parent="6VLWFbxtcUZiDCJLcJdM-2">
          <mxGeometry x="290" width="10" height="10" as="geometry" />
        </mxCell>
        <mxCell id="6VLWFbxtcUZiDCJLcJdM-33" value="" style="whiteSpace=wrap;html=1;aspect=fixed;fillColor=#F19C99;" vertex="1" parent="6VLWFbxtcUZiDCJLcJdM-2">
          <mxGeometry x="300" width="10" height="10" as="geometry" />
        </mxCell>
        <mxCell id="6VLWFbxtcUZiDCJLcJdM-34" value="" style="whiteSpace=wrap;html=1;aspect=fixed;fillColor=#F19C99;" vertex="1" parent="6VLWFbxtcUZiDCJLcJdM-2">
          <mxGeometry x="310" width="10" height="10" as="geometry" />
        </mxCell>
        <mxCell id="6VLWFbxtcUZiDCJLcJdM-35" value="" style="group;fillColor=#FFCC99;" vertex="1" connectable="0" parent="WIyWlLk6GJQsqaUBKTNV-1">
          <mxGeometry x="800" y="553" width="320" height="10" as="geometry" />
        </mxCell>
        <mxCell id="6VLWFbxtcUZiDCJLcJdM-36" value="" style="whiteSpace=wrap;html=1;aspect=fixed;" vertex="1" parent="6VLWFbxtcUZiDCJLcJdM-35">
          <mxGeometry width="10" height="10" as="geometry" />
        </mxCell>
        <mxCell id="6VLWFbxtcUZiDCJLcJdM-37" value="" style="whiteSpace=wrap;html=1;aspect=fixed;" vertex="1" parent="6VLWFbxtcUZiDCJLcJdM-35">
          <mxGeometry x="10" width="10" height="10" as="geometry" />
        </mxCell>
        <mxCell id="6VLWFbxtcUZiDCJLcJdM-38" value="" style="whiteSpace=wrap;html=1;aspect=fixed;" vertex="1" parent="6VLWFbxtcUZiDCJLcJdM-35">
          <mxGeometry x="20" width="10" height="10" as="geometry" />
        </mxCell>
        <mxCell id="6VLWFbxtcUZiDCJLcJdM-39" value="" style="whiteSpace=wrap;html=1;aspect=fixed;" vertex="1" parent="6VLWFbxtcUZiDCJLcJdM-35">
          <mxGeometry x="30" width="10" height="10" as="geometry" />
        </mxCell>
        <mxCell id="6VLWFbxtcUZiDCJLcJdM-40" value="" style="whiteSpace=wrap;html=1;aspect=fixed;" vertex="1" parent="6VLWFbxtcUZiDCJLcJdM-35">
          <mxGeometry x="40" width="10" height="10" as="geometry" />
        </mxCell>
        <mxCell id="6VLWFbxtcUZiDCJLcJdM-41" value="" style="whiteSpace=wrap;html=1;aspect=fixed;" vertex="1" parent="6VLWFbxtcUZiDCJLcJdM-35">
          <mxGeometry x="50" width="10" height="10" as="geometry" />
        </mxCell>
        <mxCell id="6VLWFbxtcUZiDCJLcJdM-42" value="" style="whiteSpace=wrap;html=1;aspect=fixed;" vertex="1" parent="6VLWFbxtcUZiDCJLcJdM-35">
          <mxGeometry x="60" width="10" height="10" as="geometry" />
        </mxCell>
        <mxCell id="6VLWFbxtcUZiDCJLcJdM-43" value="" style="whiteSpace=wrap;html=1;aspect=fixed;" vertex="1" parent="6VLWFbxtcUZiDCJLcJdM-35">
          <mxGeometry x="70" width="10" height="10" as="geometry" />
        </mxCell>
        <mxCell id="6VLWFbxtcUZiDCJLcJdM-44" value="" style="whiteSpace=wrap;html=1;aspect=fixed;" vertex="1" parent="6VLWFbxtcUZiDCJLcJdM-35">
          <mxGeometry x="80" width="10" height="10" as="geometry" />
        </mxCell>
        <mxCell id="6VLWFbxtcUZiDCJLcJdM-45" value="" style="whiteSpace=wrap;html=1;aspect=fixed;" vertex="1" parent="6VLWFbxtcUZiDCJLcJdM-35">
          <mxGeometry x="90" width="10" height="10" as="geometry" />
        </mxCell>
        <mxCell id="6VLWFbxtcUZiDCJLcJdM-46" value="" style="whiteSpace=wrap;html=1;aspect=fixed;" vertex="1" parent="6VLWFbxtcUZiDCJLcJdM-35">
          <mxGeometry x="100" width="10" height="10" as="geometry" />
        </mxCell>
        <mxCell id="6VLWFbxtcUZiDCJLcJdM-47" value="" style="whiteSpace=wrap;html=1;aspect=fixed;" vertex="1" parent="6VLWFbxtcUZiDCJLcJdM-35">
          <mxGeometry x="110" width="10" height="10" as="geometry" />
        </mxCell>
        <mxCell id="6VLWFbxtcUZiDCJLcJdM-48" value="" style="whiteSpace=wrap;html=1;aspect=fixed;" vertex="1" parent="6VLWFbxtcUZiDCJLcJdM-35">
          <mxGeometry x="120" width="10" height="10" as="geometry" />
        </mxCell>
        <mxCell id="6VLWFbxtcUZiDCJLcJdM-49" value="" style="whiteSpace=wrap;html=1;aspect=fixed;" vertex="1" parent="6VLWFbxtcUZiDCJLcJdM-35">
          <mxGeometry x="130" width="10" height="10" as="geometry" />
        </mxCell>
        <mxCell id="6VLWFbxtcUZiDCJLcJdM-50" value="" style="whiteSpace=wrap;html=1;aspect=fixed;" vertex="1" parent="6VLWFbxtcUZiDCJLcJdM-35">
          <mxGeometry x="140" width="10" height="10" as="geometry" />
        </mxCell>
        <mxCell id="6VLWFbxtcUZiDCJLcJdM-51" value="" style="whiteSpace=wrap;html=1;aspect=fixed;" vertex="1" parent="6VLWFbxtcUZiDCJLcJdM-35">
          <mxGeometry x="150" width="10" height="10" as="geometry" />
        </mxCell>
        <mxCell id="6VLWFbxtcUZiDCJLcJdM-52" value="" style="whiteSpace=wrap;html=1;aspect=fixed;" vertex="1" parent="6VLWFbxtcUZiDCJLcJdM-35">
          <mxGeometry x="160" width="10" height="10" as="geometry" />
        </mxCell>
        <mxCell id="6VLWFbxtcUZiDCJLcJdM-53" value="" style="whiteSpace=wrap;html=1;aspect=fixed;" vertex="1" parent="6VLWFbxtcUZiDCJLcJdM-35">
          <mxGeometry x="170" width="10" height="10" as="geometry" />
        </mxCell>
        <mxCell id="6VLWFbxtcUZiDCJLcJdM-54" value="" style="whiteSpace=wrap;html=1;aspect=fixed;" vertex="1" parent="6VLWFbxtcUZiDCJLcJdM-35">
          <mxGeometry x="180" width="10" height="10" as="geometry" />
        </mxCell>
        <mxCell id="6VLWFbxtcUZiDCJLcJdM-55" value="" style="whiteSpace=wrap;html=1;aspect=fixed;" vertex="1" parent="6VLWFbxtcUZiDCJLcJdM-35">
          <mxGeometry x="190" width="10" height="10" as="geometry" />
        </mxCell>
        <mxCell id="6VLWFbxtcUZiDCJLcJdM-56" value="" style="whiteSpace=wrap;html=1;aspect=fixed;" vertex="1" parent="6VLWFbxtcUZiDCJLcJdM-35">
          <mxGeometry x="200" width="10" height="10" as="geometry" />
        </mxCell>
        <mxCell id="6VLWFbxtcUZiDCJLcJdM-57" value="" style="whiteSpace=wrap;html=1;aspect=fixed;fillColor=#FFCC99;" vertex="1" parent="6VLWFbxtcUZiDCJLcJdM-35">
          <mxGeometry x="210" width="10" height="10" as="geometry" />
        </mxCell>
        <mxCell id="6VLWFbxtcUZiDCJLcJdM-58" value="" style="whiteSpace=wrap;html=1;aspect=fixed;fillColor=#FFCC99;" vertex="1" parent="6VLWFbxtcUZiDCJLcJdM-35">
          <mxGeometry x="220" width="10" height="10" as="geometry" />
        </mxCell>
        <mxCell id="6VLWFbxtcUZiDCJLcJdM-59" value="" style="whiteSpace=wrap;html=1;aspect=fixed;fillColor=#FFCC99;" vertex="1" parent="6VLWFbxtcUZiDCJLcJdM-35">
          <mxGeometry x="230" width="10" height="10" as="geometry" />
        </mxCell>
        <mxCell id="6VLWFbxtcUZiDCJLcJdM-60" value="" style="whiteSpace=wrap;html=1;aspect=fixed;fillColor=#FFCC99;" vertex="1" parent="6VLWFbxtcUZiDCJLcJdM-35">
          <mxGeometry x="240" width="10" height="10" as="geometry" />
        </mxCell>
        <mxCell id="6VLWFbxtcUZiDCJLcJdM-61" value="" style="whiteSpace=wrap;html=1;aspect=fixed;fillColor=#FFCC99;" vertex="1" parent="6VLWFbxtcUZiDCJLcJdM-35">
          <mxGeometry x="250" width="10" height="10" as="geometry" />
        </mxCell>
        <mxCell id="6VLWFbxtcUZiDCJLcJdM-62" value="" style="whiteSpace=wrap;html=1;aspect=fixed;fillColor=#FFCC99;" vertex="1" parent="6VLWFbxtcUZiDCJLcJdM-35">
          <mxGeometry x="260" width="10" height="10" as="geometry" />
        </mxCell>
        <mxCell id="6VLWFbxtcUZiDCJLcJdM-63" value="" style="whiteSpace=wrap;html=1;aspect=fixed;fillColor=#FFCC99;" vertex="1" parent="6VLWFbxtcUZiDCJLcJdM-35">
          <mxGeometry x="270" width="10" height="10" as="geometry" />
        </mxCell>
        <mxCell id="6VLWFbxtcUZiDCJLcJdM-64" value="" style="whiteSpace=wrap;html=1;aspect=fixed;fillColor=#F19C99;" vertex="1" parent="6VLWFbxtcUZiDCJLcJdM-35">
          <mxGeometry x="280" width="10" height="10" as="geometry" />
        </mxCell>
        <mxCell id="6VLWFbxtcUZiDCJLcJdM-65" value="" style="whiteSpace=wrap;html=1;aspect=fixed;fillColor=#F19C99;" vertex="1" parent="6VLWFbxtcUZiDCJLcJdM-35">
          <mxGeometry x="290" width="10" height="10" as="geometry" />
        </mxCell>
        <mxCell id="6VLWFbxtcUZiDCJLcJdM-66" value="" style="whiteSpace=wrap;html=1;aspect=fixed;fillColor=#F19C99;" vertex="1" parent="6VLWFbxtcUZiDCJLcJdM-35">
          <mxGeometry x="300" width="10" height="10" as="geometry" />
        </mxCell>
        <mxCell id="6VLWFbxtcUZiDCJLcJdM-67" value="" style="whiteSpace=wrap;html=1;aspect=fixed;fillColor=#F19C99;" vertex="1" parent="6VLWFbxtcUZiDCJLcJdM-35">
          <mxGeometry x="310" width="10" height="10" as="geometry" />
        </mxCell>
        <mxCell id="6VLWFbxtcUZiDCJLcJdM-76" value="" style="group" vertex="1" connectable="0" parent="WIyWlLk6GJQsqaUBKTNV-1">
          <mxGeometry x="800" y="713" width="320" height="10" as="geometry" />
        </mxCell>
        <mxCell id="6VLWFbxtcUZiDCJLcJdM-77" value="" style="whiteSpace=wrap;html=1;aspect=fixed;" vertex="1" parent="6VLWFbxtcUZiDCJLcJdM-76">
          <mxGeometry width="10" height="10" as="geometry" />
        </mxCell>
        <mxCell id="6VLWFbxtcUZiDCJLcJdM-78" value="" style="whiteSpace=wrap;html=1;aspect=fixed;" vertex="1" parent="6VLWFbxtcUZiDCJLcJdM-76">
          <mxGeometry x="10" width="10" height="10" as="geometry" />
        </mxCell>
        <mxCell id="6VLWFbxtcUZiDCJLcJdM-79" value="" style="whiteSpace=wrap;html=1;aspect=fixed;" vertex="1" parent="6VLWFbxtcUZiDCJLcJdM-76">
          <mxGeometry x="20" width="10" height="10" as="geometry" />
        </mxCell>
        <mxCell id="6VLWFbxtcUZiDCJLcJdM-80" value="" style="whiteSpace=wrap;html=1;aspect=fixed;" vertex="1" parent="6VLWFbxtcUZiDCJLcJdM-76">
          <mxGeometry x="30" width="10" height="10" as="geometry" />
        </mxCell>
        <mxCell id="6VLWFbxtcUZiDCJLcJdM-81" value="" style="whiteSpace=wrap;html=1;aspect=fixed;" vertex="1" parent="6VLWFbxtcUZiDCJLcJdM-76">
          <mxGeometry x="40" width="10" height="10" as="geometry" />
        </mxCell>
        <mxCell id="6VLWFbxtcUZiDCJLcJdM-82" value="" style="whiteSpace=wrap;html=1;aspect=fixed;" vertex="1" parent="6VLWFbxtcUZiDCJLcJdM-76">
          <mxGeometry x="50" width="10" height="10" as="geometry" />
        </mxCell>
        <mxCell id="6VLWFbxtcUZiDCJLcJdM-83" value="" style="whiteSpace=wrap;html=1;aspect=fixed;" vertex="1" parent="6VLWFbxtcUZiDCJLcJdM-76">
          <mxGeometry x="60" width="10" height="10" as="geometry" />
        </mxCell>
        <mxCell id="6VLWFbxtcUZiDCJLcJdM-84" value="" style="whiteSpace=wrap;html=1;aspect=fixed;" vertex="1" parent="6VLWFbxtcUZiDCJLcJdM-76">
          <mxGeometry x="70" width="10" height="10" as="geometry" />
        </mxCell>
        <mxCell id="6VLWFbxtcUZiDCJLcJdM-85" value="" style="whiteSpace=wrap;html=1;aspect=fixed;fillColor=#FFFFFF;" vertex="1" parent="6VLWFbxtcUZiDCJLcJdM-76">
          <mxGeometry x="80" width="10" height="10" as="geometry" />
        </mxCell>
        <mxCell id="6VLWFbxtcUZiDCJLcJdM-86" value="" style="whiteSpace=wrap;html=1;aspect=fixed;fillColor=#FFFFFF;" vertex="1" parent="6VLWFbxtcUZiDCJLcJdM-76">
          <mxGeometry x="90" width="10" height="10" as="geometry" />
        </mxCell>
        <mxCell id="6VLWFbxtcUZiDCJLcJdM-87" value="" style="whiteSpace=wrap;html=1;aspect=fixed;fillColor=#FFFFFF;" vertex="1" parent="6VLWFbxtcUZiDCJLcJdM-76">
          <mxGeometry x="100" width="10" height="10" as="geometry" />
        </mxCell>
        <mxCell id="6VLWFbxtcUZiDCJLcJdM-88" value="" style="whiteSpace=wrap;html=1;aspect=fixed;fillColor=#FFFFFF;" vertex="1" parent="6VLWFbxtcUZiDCJLcJdM-76">
          <mxGeometry x="110" width="10" height="10" as="geometry" />
        </mxCell>
        <mxCell id="6VLWFbxtcUZiDCJLcJdM-89" value="" style="whiteSpace=wrap;html=1;aspect=fixed;fillColor=#FFFFFF;" vertex="1" parent="6VLWFbxtcUZiDCJLcJdM-76">
          <mxGeometry x="120" width="10" height="10" as="geometry" />
        </mxCell>
        <mxCell id="6VLWFbxtcUZiDCJLcJdM-90" value="" style="whiteSpace=wrap;html=1;aspect=fixed;fillColor=#FFFFFF;" vertex="1" parent="6VLWFbxtcUZiDCJLcJdM-76">
          <mxGeometry x="130" width="10" height="10" as="geometry" />
        </mxCell>
        <mxCell id="6VLWFbxtcUZiDCJLcJdM-91" value="" style="whiteSpace=wrap;html=1;aspect=fixed;fillColor=#FFFFFF;" vertex="1" parent="6VLWFbxtcUZiDCJLcJdM-76">
          <mxGeometry x="140" width="10" height="10" as="geometry" />
        </mxCell>
        <mxCell id="6VLWFbxtcUZiDCJLcJdM-92" value="" style="whiteSpace=wrap;html=1;aspect=fixed;fillColor=#FFFFFF;" vertex="1" parent="6VLWFbxtcUZiDCJLcJdM-76">
          <mxGeometry x="150" width="10" height="10" as="geometry" />
        </mxCell>
        <mxCell id="6VLWFbxtcUZiDCJLcJdM-93" value="" style="whiteSpace=wrap;html=1;aspect=fixed;fillColor=#FFFFFF;" vertex="1" parent="6VLWFbxtcUZiDCJLcJdM-76">
          <mxGeometry x="160" width="10" height="10" as="geometry" />
        </mxCell>
        <mxCell id="6VLWFbxtcUZiDCJLcJdM-94" value="" style="whiteSpace=wrap;html=1;aspect=fixed;fillColor=#FFFFFF;" vertex="1" parent="6VLWFbxtcUZiDCJLcJdM-76">
          <mxGeometry x="170" width="10" height="10" as="geometry" />
        </mxCell>
        <mxCell id="6VLWFbxtcUZiDCJLcJdM-95" value="" style="whiteSpace=wrap;html=1;aspect=fixed;fillColor=#FFFFFF;" vertex="1" parent="6VLWFbxtcUZiDCJLcJdM-76">
          <mxGeometry x="180" width="10" height="10" as="geometry" />
        </mxCell>
        <mxCell id="6VLWFbxtcUZiDCJLcJdM-96" value="" style="whiteSpace=wrap;html=1;aspect=fixed;fillColor=#FFFFFF;" vertex="1" parent="6VLWFbxtcUZiDCJLcJdM-76">
          <mxGeometry x="190" width="10" height="10" as="geometry" />
        </mxCell>
        <mxCell id="6VLWFbxtcUZiDCJLcJdM-97" value="" style="whiteSpace=wrap;html=1;aspect=fixed;fillColor=#FFFFFF;" vertex="1" parent="6VLWFbxtcUZiDCJLcJdM-76">
          <mxGeometry x="200" width="10" height="10" as="geometry" />
        </mxCell>
        <mxCell id="6VLWFbxtcUZiDCJLcJdM-98" value="" style="whiteSpace=wrap;html=1;aspect=fixed;fillColor=#FFFFFF;" vertex="1" parent="6VLWFbxtcUZiDCJLcJdM-76">
          <mxGeometry x="210" width="10" height="10" as="geometry" />
        </mxCell>
        <mxCell id="6VLWFbxtcUZiDCJLcJdM-99" value="" style="whiteSpace=wrap;html=1;aspect=fixed;fillColor=#FFFFFF;" vertex="1" parent="6VLWFbxtcUZiDCJLcJdM-76">
          <mxGeometry x="220" width="10" height="10" as="geometry" />
        </mxCell>
        <mxCell id="6VLWFbxtcUZiDCJLcJdM-100" value="" style="whiteSpace=wrap;html=1;aspect=fixed;fillColor=#FFFFFF;" vertex="1" parent="6VLWFbxtcUZiDCJLcJdM-76">
          <mxGeometry x="230" width="10" height="10" as="geometry" />
        </mxCell>
        <mxCell id="6VLWFbxtcUZiDCJLcJdM-101" value="" style="whiteSpace=wrap;html=1;aspect=fixed;fillColor=#FFFFFF;" vertex="1" parent="6VLWFbxtcUZiDCJLcJdM-76">
          <mxGeometry x="240" width="10" height="10" as="geometry" />
        </mxCell>
        <mxCell id="6VLWFbxtcUZiDCJLcJdM-102" value="" style="whiteSpace=wrap;html=1;aspect=fixed;fillColor=#FFFFFF;" vertex="1" parent="6VLWFbxtcUZiDCJLcJdM-76">
          <mxGeometry x="250" width="10" height="10" as="geometry" />
        </mxCell>
        <mxCell id="6VLWFbxtcUZiDCJLcJdM-103" value="" style="whiteSpace=wrap;html=1;aspect=fixed;fillColor=#FFCC99;labelBackgroundColor=none;" vertex="1" parent="6VLWFbxtcUZiDCJLcJdM-76">
          <mxGeometry x="260" width="10" height="10" as="geometry" />
        </mxCell>
        <mxCell id="6VLWFbxtcUZiDCJLcJdM-104" value="" style="whiteSpace=wrap;html=1;aspect=fixed;fillColor=#FFCC99;labelBackgroundColor=none;" vertex="1" parent="6VLWFbxtcUZiDCJLcJdM-76">
          <mxGeometry x="270" width="10" height="10" as="geometry" />
        </mxCell>
        <mxCell id="6VLWFbxtcUZiDCJLcJdM-105" value="" style="whiteSpace=wrap;html=1;aspect=fixed;fillColor=#F19C99;" vertex="1" parent="6VLWFbxtcUZiDCJLcJdM-76">
          <mxGeometry x="280" width="10" height="10" as="geometry" />
        </mxCell>
        <mxCell id="6VLWFbxtcUZiDCJLcJdM-106" value="" style="whiteSpace=wrap;html=1;aspect=fixed;fillColor=#F19C99;" vertex="1" parent="6VLWFbxtcUZiDCJLcJdM-76">
          <mxGeometry x="290" width="10" height="10" as="geometry" />
        </mxCell>
        <mxCell id="6VLWFbxtcUZiDCJLcJdM-107" value="" style="whiteSpace=wrap;html=1;aspect=fixed;fillColor=#F19C99;" vertex="1" parent="6VLWFbxtcUZiDCJLcJdM-76">
          <mxGeometry x="300" width="10" height="10" as="geometry" />
        </mxCell>
        <mxCell id="6VLWFbxtcUZiDCJLcJdM-108" value="" style="whiteSpace=wrap;html=1;aspect=fixed;fillColor=#F19C99;" vertex="1" parent="6VLWFbxtcUZiDCJLcJdM-76">
          <mxGeometry x="310" width="10" height="10" as="geometry" />
        </mxCell>
        <mxCell id="6VLWFbxtcUZiDCJLcJdM-109" value="" style="group" vertex="1" connectable="0" parent="WIyWlLk6GJQsqaUBKTNV-1">
          <mxGeometry x="800" y="670" width="320" height="10" as="geometry" />
        </mxCell>
        <mxCell id="6VLWFbxtcUZiDCJLcJdM-110" value="" style="whiteSpace=wrap;html=1;aspect=fixed;" vertex="1" parent="6VLWFbxtcUZiDCJLcJdM-109">
          <mxGeometry width="10" height="10" as="geometry" />
        </mxCell>
        <mxCell id="6VLWFbxtcUZiDCJLcJdM-111" value="" style="whiteSpace=wrap;html=1;aspect=fixed;" vertex="1" parent="6VLWFbxtcUZiDCJLcJdM-109">
          <mxGeometry x="10" width="10" height="10" as="geometry" />
        </mxCell>
        <mxCell id="6VLWFbxtcUZiDCJLcJdM-112" value="" style="whiteSpace=wrap;html=1;aspect=fixed;" vertex="1" parent="6VLWFbxtcUZiDCJLcJdM-109">
          <mxGeometry x="20" width="10" height="10" as="geometry" />
        </mxCell>
        <mxCell id="6VLWFbxtcUZiDCJLcJdM-113" value="" style="whiteSpace=wrap;html=1;aspect=fixed;" vertex="1" parent="6VLWFbxtcUZiDCJLcJdM-109">
          <mxGeometry x="30" width="10" height="10" as="geometry" />
        </mxCell>
        <mxCell id="6VLWFbxtcUZiDCJLcJdM-114" value="" style="whiteSpace=wrap;html=1;aspect=fixed;" vertex="1" parent="6VLWFbxtcUZiDCJLcJdM-109">
          <mxGeometry x="40" width="10" height="10" as="geometry" />
        </mxCell>
        <mxCell id="6VLWFbxtcUZiDCJLcJdM-115" value="" style="whiteSpace=wrap;html=1;aspect=fixed;" vertex="1" parent="6VLWFbxtcUZiDCJLcJdM-109">
          <mxGeometry x="50" width="10" height="10" as="geometry" />
        </mxCell>
        <mxCell id="6VLWFbxtcUZiDCJLcJdM-116" value="" style="whiteSpace=wrap;html=1;aspect=fixed;" vertex="1" parent="6VLWFbxtcUZiDCJLcJdM-109">
          <mxGeometry x="60" width="10" height="10" as="geometry" />
        </mxCell>
        <mxCell id="6VLWFbxtcUZiDCJLcJdM-117" value="" style="whiteSpace=wrap;html=1;aspect=fixed;" vertex="1" parent="6VLWFbxtcUZiDCJLcJdM-109">
          <mxGeometry x="70" width="10" height="10" as="geometry" />
        </mxCell>
        <mxCell id="6VLWFbxtcUZiDCJLcJdM-118" value="" style="whiteSpace=wrap;html=1;aspect=fixed;fillColor=#FFFFFF;" vertex="1" parent="6VLWFbxtcUZiDCJLcJdM-109">
          <mxGeometry x="80" width="10" height="10" as="geometry" />
        </mxCell>
        <mxCell id="6VLWFbxtcUZiDCJLcJdM-119" value="" style="whiteSpace=wrap;html=1;aspect=fixed;fillColor=#FFFFFF;" vertex="1" parent="6VLWFbxtcUZiDCJLcJdM-109">
          <mxGeometry x="90" width="10" height="10" as="geometry" />
        </mxCell>
        <mxCell id="6VLWFbxtcUZiDCJLcJdM-120" value="" style="whiteSpace=wrap;html=1;aspect=fixed;fillColor=#FFFFFF;" vertex="1" parent="6VLWFbxtcUZiDCJLcJdM-109">
          <mxGeometry x="100" width="10" height="10" as="geometry" />
        </mxCell>
        <mxCell id="6VLWFbxtcUZiDCJLcJdM-121" value="" style="whiteSpace=wrap;html=1;aspect=fixed;fillColor=#FFFFFF;" vertex="1" parent="6VLWFbxtcUZiDCJLcJdM-109">
          <mxGeometry x="110" width="10" height="10" as="geometry" />
        </mxCell>
        <mxCell id="6VLWFbxtcUZiDCJLcJdM-122" value="" style="whiteSpace=wrap;html=1;aspect=fixed;fillColor=#FFFFFF;" vertex="1" parent="6VLWFbxtcUZiDCJLcJdM-109">
          <mxGeometry x="120" width="10" height="10" as="geometry" />
        </mxCell>
        <mxCell id="6VLWFbxtcUZiDCJLcJdM-123" value="" style="whiteSpace=wrap;html=1;aspect=fixed;fillColor=#FFFFFF;" vertex="1" parent="6VLWFbxtcUZiDCJLcJdM-109">
          <mxGeometry x="130" width="10" height="10" as="geometry" />
        </mxCell>
        <mxCell id="6VLWFbxtcUZiDCJLcJdM-124" value="" style="whiteSpace=wrap;html=1;aspect=fixed;fillColor=#FFFFFF;" vertex="1" parent="6VLWFbxtcUZiDCJLcJdM-109">
          <mxGeometry x="140" width="10" height="10" as="geometry" />
        </mxCell>
        <mxCell id="6VLWFbxtcUZiDCJLcJdM-125" value="" style="whiteSpace=wrap;html=1;aspect=fixed;fillColor=#FFFFFF;" vertex="1" parent="6VLWFbxtcUZiDCJLcJdM-109">
          <mxGeometry x="150" width="10" height="10" as="geometry" />
        </mxCell>
        <mxCell id="6VLWFbxtcUZiDCJLcJdM-126" value="" style="whiteSpace=wrap;html=1;aspect=fixed;fillColor=#FFFFFF;" vertex="1" parent="6VLWFbxtcUZiDCJLcJdM-109">
          <mxGeometry x="160" width="10" height="10" as="geometry" />
        </mxCell>
        <mxCell id="6VLWFbxtcUZiDCJLcJdM-127" value="" style="whiteSpace=wrap;html=1;aspect=fixed;fillColor=#FFFFFF;" vertex="1" parent="6VLWFbxtcUZiDCJLcJdM-109">
          <mxGeometry x="170" width="10" height="10" as="geometry" />
        </mxCell>
        <mxCell id="6VLWFbxtcUZiDCJLcJdM-128" value="" style="whiteSpace=wrap;html=1;aspect=fixed;fillColor=#FFFFFF;" vertex="1" parent="6VLWFbxtcUZiDCJLcJdM-109">
          <mxGeometry x="180" width="10" height="10" as="geometry" />
        </mxCell>
        <mxCell id="6VLWFbxtcUZiDCJLcJdM-129" value="" style="whiteSpace=wrap;html=1;aspect=fixed;fillColor=#FFFFFF;" vertex="1" parent="6VLWFbxtcUZiDCJLcJdM-109">
          <mxGeometry x="190" width="10" height="10" as="geometry" />
        </mxCell>
        <mxCell id="6VLWFbxtcUZiDCJLcJdM-130" value="" style="whiteSpace=wrap;html=1;aspect=fixed;fillColor=#FFFFFF;" vertex="1" parent="6VLWFbxtcUZiDCJLcJdM-109">
          <mxGeometry x="200" width="10" height="10" as="geometry" />
        </mxCell>
        <mxCell id="6VLWFbxtcUZiDCJLcJdM-131" value="" style="whiteSpace=wrap;html=1;aspect=fixed;fillColor=#FFFFFF;" vertex="1" parent="6VLWFbxtcUZiDCJLcJdM-109">
          <mxGeometry x="210" width="10" height="10" as="geometry" />
        </mxCell>
        <mxCell id="6VLWFbxtcUZiDCJLcJdM-132" value="" style="whiteSpace=wrap;html=1;aspect=fixed;fillColor=#FFFFFF;" vertex="1" parent="6VLWFbxtcUZiDCJLcJdM-109">
          <mxGeometry x="220" width="10" height="10" as="geometry" />
        </mxCell>
        <mxCell id="6VLWFbxtcUZiDCJLcJdM-133" value="" style="whiteSpace=wrap;html=1;aspect=fixed;fillColor=#FFFFFF;" vertex="1" parent="6VLWFbxtcUZiDCJLcJdM-109">
          <mxGeometry x="230" width="10" height="10" as="geometry" />
        </mxCell>
        <mxCell id="6VLWFbxtcUZiDCJLcJdM-134" value="" style="whiteSpace=wrap;html=1;aspect=fixed;fillColor=#FFFFFF;" vertex="1" parent="6VLWFbxtcUZiDCJLcJdM-109">
          <mxGeometry x="240" width="10" height="10" as="geometry" />
        </mxCell>
        <mxCell id="6VLWFbxtcUZiDCJLcJdM-135" value="" style="whiteSpace=wrap;html=1;aspect=fixed;fillColor=#FFFFFF;" vertex="1" parent="6VLWFbxtcUZiDCJLcJdM-109">
          <mxGeometry x="250" width="10" height="10" as="geometry" />
        </mxCell>
        <mxCell id="6VLWFbxtcUZiDCJLcJdM-136" value="" style="whiteSpace=wrap;html=1;aspect=fixed;fillColor=#FFCC99;labelBackgroundColor=none;" vertex="1" parent="6VLWFbxtcUZiDCJLcJdM-109">
          <mxGeometry x="260" width="10" height="10" as="geometry" />
        </mxCell>
        <mxCell id="6VLWFbxtcUZiDCJLcJdM-137" value="" style="whiteSpace=wrap;html=1;aspect=fixed;fillColor=#FFCC99;labelBackgroundColor=none;" vertex="1" parent="6VLWFbxtcUZiDCJLcJdM-109">
          <mxGeometry x="270" width="10" height="10" as="geometry" />
        </mxCell>
        <mxCell id="6VLWFbxtcUZiDCJLcJdM-138" value="" style="whiteSpace=wrap;html=1;aspect=fixed;fillColor=#F19C99;" vertex="1" parent="6VLWFbxtcUZiDCJLcJdM-109">
          <mxGeometry x="280" width="10" height="10" as="geometry" />
        </mxCell>
        <mxCell id="6VLWFbxtcUZiDCJLcJdM-139" value="" style="whiteSpace=wrap;html=1;aspect=fixed;fillColor=#F19C99;" vertex="1" parent="6VLWFbxtcUZiDCJLcJdM-109">
          <mxGeometry x="290" width="10" height="10" as="geometry" />
        </mxCell>
        <mxCell id="6VLWFbxtcUZiDCJLcJdM-140" value="" style="whiteSpace=wrap;html=1;aspect=fixed;fillColor=#F19C99;" vertex="1" parent="6VLWFbxtcUZiDCJLcJdM-109">
          <mxGeometry x="300" width="10" height="10" as="geometry" />
        </mxCell>
        <mxCell id="6VLWFbxtcUZiDCJLcJdM-141" value="" style="whiteSpace=wrap;html=1;aspect=fixed;fillColor=#F19C99;" vertex="1" parent="6VLWFbxtcUZiDCJLcJdM-109">
          <mxGeometry x="310" width="10" height="10" as="geometry" />
        </mxCell>
      </root>
    </mxGraphModel>
  </diagram>
</mxfile>
